<?xml version="1.0" encoding="UTF-8"?>
<svg id="Layer_1" xmlns="http://www.w3.org/2000/svg" version="1.1" viewBox="0 0 1366 768">
  <!-- Generator: Adobe Illustrator 29.6.1, SVG Export Plug-In . SVG Version: 2.1.1 Build 9)  -->
  <defs>
    <style>
      .st0 {
        fill: none;
        stroke: #000;
        stroke-linecap: round;
        stroke-linejoin: round;
        stroke-width: 2px;
      }
    </style>
  </defs>
  <path class="st0" d="M403.8,583.5c-17.3-4.8-32-13.7-42.4-28.6-6.9-9.9-10.5-21.3-12.1-33.4-2.5-19-1.3-38-1.4-57-.2-28.7,0-57.3,0-86,0-4-.1-8-.8-12-1.2-6.9.7-13.7,2.3-20.5.4-2,1.8-1.9,3.1-2.5,6.4-3,13.4-4.3,20-6.3,24.1-7.4,46.4-17.9,66-34,11.2-9.2,20.6-19.7,27.8-32.2,8.9-15.4,13.8-32,14.1-50,.2-12.9-.5-25.8-4.8-37.9-3.1-9.1-7.8-17.5-13.1-25.7-7.3-11-16.8-19.6-26.7-27.8-9.9-8.2-21.2-14.1-32.8-19.8-17.7-8.6-36.2-14.3-55.1-18.6-16.2-3.7-32.8-5.9-49.4-6.6-9.2-.4-18.3-1.2-27.5-1-34.2.8-67.9,4.8-100.4,16-27.9,9.6-53.4,23.3-73.4,45.6-20.2,22.5-29.9,48.9-27.1,79.4,2.3,24.3,12.1,45.4,27.5,64,7.1,8.5,15.6,15.3,24.4,22.2,9.9,7.8,21,13.6,32.2,18.5,11.9,5.2,24.4,9.5,37.3,12.4,13.6,3.1,27.3,5.9,41,7.6,14.3,1.8,28.9,1.6,43.4,1.2"/>
  <path class="st0" d="M606.9,168.5c3.5,4.4,3.6,9.9,3.6,15,.2,50,.4,100-.2,150-.1,9.8-2.7,19.6-2.2,29.5,2.3,49,.7,98,.9,147,.1,29.9-10.4,55.7-32.9,76-15.8,14.2-34.4,23-54.9,28.8-9.6,2.7-19.4,4.8-29.1,6.5-10.1,1.8-20.5,2.9-30.9,2.8-8.8,0-17.7-.1-26.5,0-11.8.2-23.3-1.2-35-2.8-13.4-1.8-26.2-5-39-9.2-17-5.5-32.3-14.2-44.8-26.7-20.7-20.7-30.7-46.4-31.5-75.4-1.4-48.3-.3-96.7-.6-145,0-1.5.6-3.1-.5-4.5"/>
  <path class="st0" d="M389.8,160c-6.2-8-14.8-13-23-18.5-13.2-9-28.4-13.2-43.5-17.3-4.8-1.3-10-1.5-14.9-2.3-12.8-2.3-25.7-3.3-38.5-2.6-22.5,1.3-44.9,4-66,12.8-16.3,6.8-31.2,15.7-42.9,29.1-9,10.3-15.4,22-19.2,35.4-4.6,16.2-3.6,32.3.9,48,3.7,12.8,10.9,24.2,20.7,33.5,8.3,7.9,17.3,15.3,27.5,20.4,19.6,9.8,40.3,15.9,62.4,17.2,22.2,1.3,44.2.4,66-4.6,27-6.1,51.2-17.6,69.9-38.6,13.8-15.5,21.1-33.9,22.7-54.9,1.7-22.7-7.1-41.1-21.6-57.5"/>
  <path class="st0" d="M1181.2,338c9.2,5,18.7,9.1,29.5,9,7,0,14-.2,21,0,8,.3,13.6-5.1,11.6-14.6-2.1-10-3.5-20.2-3.6-30.5,0-21,0-42,0-63,0-11.7-1.3-23.2-5.7-33.9-2.7-6.5-7.2-12.5-12.3-17.5-14.5-14.2-32.5-22.2-51.9-27-25.1-6.2-50.7-6.7-76.4-5.6-19,.8-37.8,3-56.5,7-9.9,2.1-19.6,4.8-29.2,8.3,1.6,4.2,4.2,7.6,6.3,11.1,1,1.7,1.7,3.5,2.8,5.1,1.5,2.5.8,6.2,4.6,7.5,5.5,1.9,10.8,4.5,17,3,12.2-3.1,24.5-5.2,37-7.1,19.2-2.8,38.4-2.8,57.4-.3,9.6,1.3,19.1,3.8,27.6,9.2,7.1,4.5,10.5,11.5,13.8,18.6.7,1.5.1,3.6.1,5.5-1.4,1.5-3.3,1-5,1-32.1,0-64.2,1.7-95.9,7.1-22.2,3.8-44,9.1-63.4,21-12.5,7.6-22.6,17.4-25.1,32.9-1.3,7.8,0,15.1,3.6,22,7.6,14.7,18.7,26,34,32.4,10.4,4.4,21.3,7.2,32.4,9,2.3.4,4.7.7,6.9,1.2,7.2,1.6,13.7.2,20-3.2,2-1.1,4-.9,6-1,19.4-.2,38.7-1.8,57.9-4.6.4,0,.7-.5,1-.5,9.6,2.6,15.9-5.3,24-7.5,1.7-.5,2.4-2,3-3.5,1.7-4.4,3.2-8.9,5.5-13"/>
  <path class="st0" d="M808,306.5c1.2-6.5-.1-12.2-3.4-18.1-9.4-16.6-19.6-32.7-29.7-48.9-12.4-19.8-24.4-39.8-36.7-59.7-5.1-8.2-12.5-13.9-18.7-20.9-1.1-1.2-2.7-.5-4-.5-18.8,0-37.6,0-56.5,0-1.8,2.2.9,3.1,1.6,3.9,5.1,6,7.4,13.5,11.2,20.2,6.8,11.7,14.8,22.6,22.2,33.9,10,15.5,20.5,30.8,30.9,46.1,6.4,9.4,12.8,18.9,19,28.5,7.6,11.7,15.7,23.1,23.1,34.9,2.9,4.6,6,9.2,9.5,13.5,2.7,3.4,7.1,4.2,11,5.5,9.4,3.1,19.3,1.9,29,2.1,1.3,0,2-1,3-1.4,2.6-1.3,5.4-2.2,8.5-2.1,9.6.3,17.1-3,22.6-11.4,12.5-19.2,26-37.7,38.9-56.5,13.7-19.9,27.7-39.7,41.3-59.6,8.2-12,16.6-23.8,24.6-35.9,1.8-2.7,3.5-5.5,3-9"/>
  <path class="st0" d="M550.7,348c-1.4,1.1-3,.2-4.7.6-.6,1.7-.2,3.6-.2,5.4,0,50.2,0,100.3,0,150.5,0,13.9-2.2,27.5-8.5,40-8.4,16.7-22.3,27.7-39.4,34.5-15.4,6.1-31.5,8.4-47.9,9.2-11.4.6-22.7,0-34-1.7-3.7-.5-7.4-1.1-11-2.4"/>
  <path class="st0" d="M756,354.5c-1.7-1.5-2.1-3.4-2-6h-55.5v263.3c1.9.5,3.8-.3,5,1.2"/>
  <path class="st0" d="M756.8,355.5c4.1,6.6,4.8,13.9,4.8,21.5,0,76.7,0,153.3,0,230s-3.6,13-13,13-12.7-.1-19,0c-8.4.2-16.8.3-24-5.3"/>
  <path class="st0" d="M602.1,161.5c-.8-1.2-.2-3.1-3-3.1-18,.2-36,.1-54,.1-.2,0-.3.3-1,1v178.4c1.3,1.3,3.2-.2,4.5,1.1"/>
  <path class="st0" d="M956.9,169c-1-3.3-3-6.7.2-9.9-1.3-.9-2.5-.6-3.7-.6-17.5,0-35,0-52.5,0-2.8,0-4.1,1-5.6,3.5-21.3,34.4-41.7,69.4-63.3,103.6-4.9,7.7-10,15.3-14,23.5-2,4-4.7,6.2-9.1,6.5"/>
  <path class="st0" d="M982.3,518c4.8,1.6,9.3,3.7,14,5.5,4.3,1.6,6.6,5.5,9.4,8.6,13.5,14.7,28.5,27.9,41.5,42.9,11.8,13.5,25.2,25.4,37,39,2.1,2.4,5.2,2.6,8,3.5,5.2,1.7,10.5,2.6,16,2.6,12.2-.1,24.3,0,36.5,0,6,0,8-1.9,8.5-7,.4-3.6-2.3-5.9-4.1-7.9-14.7-15.6-30.1-30.5-45-46-12.5-12.9-25.7-25.3-38.3-38.2-7.1-7.2-14.3-14.4-21.6-21.4-6-5.7-7.7-13.5-10.9-20.6-.9-2,.7-3.6,2-4.9,5.3-5.2,10.2-10.8,15.5-16,14.4-14.2,29.2-28.1,43.5-42.5,15.4-15.5,31.5-30.1,46.9-45.6,7.7-7.7,11.9-17.1,12.5-28"/>
  <path class="st0" d="M981.3,502.5c-.4,2,.3,4,.6,6,.9,6.4-1.8,10.8-5.9,15.6-16,18.4-32.8,36.2-49.2,54.3-11.2,12.3-21.9,25-33.9,36.5-3.4,3.3-7.5,5.4-12.9,5.2-11.3-.4-22.6-.2-34,0-3.2,0-6.2-.3-9-1.8"/>
  <path class="st0" d="M1173.7,263.5c3.9,7.9,2.5,22.3-4.4,29.6-13.8,14.7-31.5,20.7-50.6,23.8-12.4,2-25,3-37.4.5-10.7-2.1-20.8-5.5-26.1-16.8-4.8-10.2-2.4-18.3,5-24.6,6.2-5.3,13.4-8.1,21-10.5,8.2-2.5,16.6-4.3,25-6,3.7-.7,7.4-.8,11-1.2,8.6-.7,17.3-2.5,26-2.2,8.2.3,16.3-1.5,24.5-1.1"/>
  <path class="st0" d="M1072.8,353c1.6,3.9.9,6.7-2.4,10.1-19.6,20.4-39.2,40.8-58.5,61.4-6.9,7.4-13.3,15.4-20.1,22.9-2.6,2.9-5.9,2.9-8.5,0-11-12-21.9-24.1-32.8-36.1-12.3-13.5-25.3-26.4-36.7-40.8-6.8-8.7-16.2-14.8-24.9-21.5-1.3-1-3-.5-4.5-.5-9.3-.3-18.7.6-28-.5"/>
  <path class="st0" d="M820.5,350c4.3,4.4,10.6,6.3,14.1,11.9,7.9,13,19.7,22.6,30,33.5,22.7,24.1,46.5,47.1,68.9,71.5,2.5,2.8,5.8,4.8,8.5,7.5,3.5,3.7,3.6,8.1,0,12-15.4,16.6-31.4,32.6-47.5,48.5-24.8,24.5-48.9,49.7-73.4,74.5-.4.4-1.1.7-1,1.7,3.5,2.2,8-.8,11.5,1.8"/>
  <path class="st0" d="M348.8,344.5c-6.2-3.7-13-1.9-19.5-1.4-12.5.9-25,1.7-37.5,2-4.9.1-10.3-.7-14,3.9"/>
  <path class="st0" d="M608.1,343.5h-52.5"/>
  <path class="st0" d="M566.6,87.5c-4.7.9-9.4,1.6-14,3.4-5.2,2-9.6,4.7-12.9,9.1-3.2,4.2-3.5,9.9-.5,14.5,3.4,5.3,6.7,10.7,12,14.5,5,3.6,10.5,5.6,16.5,6.5,7,1,14,1.8,21,.4,9-1.8,17.4-4.5,23.6-12.3,5.2-6.6,1.9-18.9-2.4-23-9.1-8.5-20.3-12.5-32.6-13.1-3.3-.2-6.7,0-10,0"/>
</svg>