<svg width="395.749" height="79.977" viewBox="0 0 395.749 79.977" xmlns="http://www.w3.org/2000/svg"><g id="svgGroup" stroke-linecap="round" fill-rule="nonzero" font-size="9pt" stroke="#161717" stroke-width=".5" fill="#000000" style="stroke:#161717;stroke-width:.5;fill:#000000"><path d="M 67.631 54.635 A 35.014 35.014 0 0 1 64.501 62.897 Q 59.979 71.286 52.184 75.57 Q 44.39 79.854 34.513 79.854 Q 24.755 79.854 16.901 75.57 Q 9.047 71.286 4.525 62.897 A 37.745 37.745 0 0 1 0.537 50.169 A 57.51 57.51 0 0 1 0.003 42.131 Q 0.003 29.755 4.644 21.366 Q 9.285 12.976 17.079 8.692 Q 24.874 4.408 34.513 4.408 Q 44.271 4.408 52.065 8.692 Q 59.86 12.976 64.441 21.366 A 37.395 37.395 0 0 1 68.481 34.094 A 56.775 56.775 0 0 1 69.023 42.131 A 52.211 52.211 0 0 1 67.631 54.635 Z M 59.146 42.131 A 44.632 44.632 0 0 0 57.904 31.159 A 25.838 25.838 0 0 0 52.422 20.295 A 22.606 22.606 0 0 0 34.6 12.62 A 32.506 32.506 0 0 0 34.513 12.619 Q 23.446 12.619 16.722 20.295 A 26.232 26.232 0 0 0 11.045 31.967 A 45.672 45.672 0 0 0 9.999 42.131 A 45.012 45.012 0 0 0 11.229 53.104 A 25.923 25.923 0 0 0 16.663 63.968 A 22.361 22.361 0 0 0 34.164 71.642 A 32.296 32.296 0 0 0 34.513 71.643 A 24.425 24.425 0 0 0 46.831 68.645 A 21.716 21.716 0 0 0 52.482 63.968 A 26.28 26.28 0 0 0 58.088 52.386 A 45.946 45.946 0 0 0 59.146 42.131 Z" id="0"/><path d="M 85.1 74.618 L 85.1 46.891 L 94.62 46.891 L 94.62 78.069 Q 94.025 78.307 92.835 78.605 Q 91.645 78.902 90.217 78.902 Q 87.718 78.902 86.409 77.891 Q 85.1 76.879 85.1 74.618 Z M 94.62 27.137 L 94.62 51.532 L 85.1 51.532 L 85.1 23.567 Q 85.695 23.329 86.944 23.032 Q 88.194 22.734 89.622 22.734 Q 92.121 22.734 93.37 23.746 Q 94.62 24.757 94.62 27.137 Z M 83.672 5.955 Q 83.672 3.456 85.457 1.731 Q 87.242 0.005 89.86 0.005 Q 92.597 0.005 94.263 1.731 Q 95.929 3.456 95.929 5.955 Q 95.929 8.454 94.263 10.18 Q 92.597 11.905 89.86 11.905 Q 87.242 11.905 85.457 10.18 Q 83.672 8.454 83.672 5.955 Z" id="1"/><path d="M 118.312 26.899 L 125.69 48.2 A 210.741 210.741 0 0 0 127.453 53.042 A 374.302 374.302 0 0 0 128.189 54.983 L 131.283 63.075 A 284.155 284.155 0 0 1 133.269 68.408 A 152.238 152.238 0 0 1 133.782 69.858 L 134.258 69.858 Q 139.018 57.839 143.183 46.118 Q 147.348 34.396 150.323 23.21 Q 151.87 22.258 154.369 22.258 Q 156.392 22.258 157.642 23.329 Q 158.891 24.4 158.891 26.423 A 13.104 13.104 0 0 1 158.43 29.225 A 56.958 56.958 0 0 1 157.582 32.254 A 198.233 198.233 0 0 1 155.15 39.618 A 325.825 325.825 0 0 1 154.131 42.488 Q 151.989 48.438 149.431 54.924 Q 146.872 61.409 144.195 67.419 A 235.549 235.549 0 0 1 140.413 75.53 A 152.039 152.039 0 0 1 139.256 77.831 Q 138.661 78.307 137.174 78.664 Q 135.686 79.021 134.02 79.021 Q 131.997 79.021 130.45 78.367 Q 128.903 77.712 128.308 76.522 A 77.21 77.21 0 0 1 126.37 72.688 A 186.25 186.25 0 0 1 124.917 69.561 A 280.541 280.541 0 0 1 121.045 60.587 A 388.146 388.146 0 0 1 120.454 59.148 Q 118.074 53.317 115.635 47.07 Q 113.195 40.822 111.172 35.051 Q 109.149 29.279 107.84 24.876 Q 108.673 23.686 110.101 22.972 Q 111.529 22.258 112.957 22.258 Q 115.099 22.258 116.289 23.329 Q 117.479 24.4 118.312 26.899 Z" id="2"/><path d="M 187.82 46.058 L 204.718 44.392 L 204.718 41.06 A 11.943 11.943 0 0 0 203.031 34.398 A 8.207 8.207 0 0 0 201.148 32.373 A 14.305 14.305 0 0 0 193.345 29.703 A 24.451 24.451 0 0 0 191.509 29.636 Q 186.63 29.636 182.168 31.064 Q 177.705 32.492 174.254 34.277 Q 173.302 33.444 172.529 32.314 Q 171.755 31.183 171.755 29.993 Q 171.755 26.899 175.206 25.233 Q 178.419 23.567 182.644 22.675 Q 186.868 21.782 191.628 21.782 A 33.321 33.321 0 0 1 201.608 23.151 A 20.71 20.71 0 0 1 208.05 26.423 A 15.493 15.493 0 0 1 213.818 36.875 A 27.61 27.61 0 0 1 214.119 41.06 L 214.119 69.263 Q 214.119 71.881 213.108 73.25 Q 212.096 74.618 210.073 75.808 A 32.445 32.445 0 0 1 204.313 78.123 A 59.38 59.38 0 0 1 202.457 78.664 Q 197.697 79.973 191.747 79.973 A 40.876 40.876 0 0 1 182.115 78.945 A 21.903 21.903 0 0 1 174.433 75.57 Q 168.304 71.167 168.304 62.837 Q 168.304 55.102 173.481 50.997 Q 178.657 46.891 187.82 46.058 Z M 204.718 69.144 L 204.718 51.889 L 189.962 53.436 A 23.742 23.742 0 0 0 183.614 54.679 A 10.826 10.826 0 0 0 180.799 56.173 Q 177.824 58.434 177.824 62.718 Q 177.824 67.121 181.335 69.62 Q 184.845 72.119 191.747 72.119 Q 196.745 72.119 200.018 71.108 Q 203.29 70.096 204.718 69.144 Z" id="3"/><path d="M 233.052 53.317 L 233.052 43.559 L 242.691 43.559 L 242.691 52.484 A 23.563 23.563 0 0 0 244.186 61.273 A 14.851 14.851 0 0 0 247.987 66.824 Q 253.282 71.643 261.136 71.643 Q 268.99 71.643 274.286 66.824 A 16.368 16.368 0 0 0 279.271 56.82 A 28.686 28.686 0 0 0 279.581 52.484 L 279.581 43.559 L 289.339 43.559 L 289.339 53.317 Q 289.339 61.29 286.067 67.3 Q 282.794 73.309 276.487 76.582 A 30.294 30.294 0 0 1 265.094 79.687 A 45.152 45.152 0 0 1 261.136 79.854 A 36.361 36.361 0 0 1 249.88 78.237 A 26.161 26.161 0 0 1 245.904 76.582 Q 239.597 73.309 236.325 67.3 A 28.547 28.547 0 0 1 233.055 53.818 A 38.402 38.402 0 0 1 233.052 53.317 Z M 289.339 9.763 L 289.339 48.438 L 279.581 48.438 L 279.581 6.193 Q 280.176 5.955 281.426 5.658 Q 282.675 5.36 284.103 5.36 Q 286.721 5.36 288.03 6.372 Q 289.339 7.383 289.339 9.763 Z M 242.691 9.763 L 242.691 48.438 L 233.052 48.438 L 233.052 6.193 Q 233.647 5.955 234.897 5.658 Q 236.146 5.36 237.574 5.36 A 6.099 6.099 0 0 1 241.439 6.37 A 2.922 2.922 0 0 1 241.442 6.372 Q 242.691 7.383 242.691 9.763 Z" id="4"/><path d="M 310.533 74.499 L 310.533 35.11 L 320.172 35.11 L 320.172 78.069 Q 319.577 78.307 318.387 78.605 Q 317.197 78.902 315.769 78.902 Q 313.151 78.902 311.842 77.831 Q 310.533 76.76 310.533 74.499 Z M 320.172 9.763 L 320.172 43.083 L 310.533 43.083 L 310.533 6.193 Q 311.128 5.955 312.378 5.658 Q 313.627 5.36 315.055 5.36 A 6.099 6.099 0 0 1 318.92 6.37 A 2.922 2.922 0 0 1 318.923 6.372 Q 320.172 7.383 320.172 9.763 Z" id="5"/><path d="M 384.444 75.094 L 362.905 43.916 L 361.239 43.202 L 336.844 10.001 Q 337.439 7.978 338.867 6.61 Q 340.295 5.241 342.556 5.241 Q 344.46 5.241 345.769 6.372 Q 347.078 7.502 348.506 9.525 L 368.022 37.49 L 370.759 39.87 L 395.749 74.499 Q 395.273 76.522 393.905 77.831 Q 392.536 79.14 390.275 79.14 Q 388.371 79.14 387.122 78.188 Q 385.872 77.236 384.444 75.094 Z M 370.997 42.488 Q 376.59 35.467 381.945 28.506 Q 387.3 21.544 392.417 14.642 Q 393.369 13.333 394.024 12.024 Q 394.678 10.715 394.678 9.525 Q 394.678 7.74 393.429 6.55 Q 392.179 5.36 389.68 5.36 Q 388.966 5.36 388.371 5.42 Q 387.776 5.479 387.181 5.598 L 364.571 36.895 L 361.358 39.87 L 339.105 69.025 Q 337.915 70.572 337.142 71.941 Q 336.368 73.309 336.368 74.856 Q 336.368 76.76 337.796 77.95 Q 339.224 79.14 341.604 79.14 A 13.821 13.821 0 0 0 342.854 79.081 Q 343.508 79.021 343.984 78.902 L 368.379 44.868 L 370.997 42.488 Z" id="6"/></g></svg>