<?xml version="1.0" standalone="no"?>
<!DOCTYPE svg PUBLIC "-//W3C//DTD SVG 20010904//EN"
 "http://www.w3.org/TR/2001/REC-SVG-20010904/DTD/svg10.dtd">
<svg version="1.0" xmlns="http://www.w3.org/2000/svg"
 width="640.000000pt" height="640.000000pt" viewBox="0 0 640.000000 640.000000"
 preserveAspectRatio="xMidYMid meet">

<g transform="translate(0.000000,640.000000) scale(0.100000,-0.100000)"
fill="#000000" stroke="none">
<path d="M5113 4983 c9 -2 25 -2 35 0 9 3 1 5 -18 5 -19 0 -27 -2 -17 -5z"/>
<path d="M2840 4942 c0 -10 33 -22 60 -22 13 1 13 2 0 9 -27 16 -60 22 -60 13z"/>
<path d="M5048 4943 c-34 -9 -19 -26 19 -22 4 0 10 -8 14 -18 6 -16 8 -15 17
7 15 38 2 47 -50 33z"/>
<path d="M5160 4935 c-7 -9 -11 -18 -8 -20 3 -3 11 1 18 10 7 9 11 18 8 20 -3
3 -11 -1 -18 -10z"/>
<path d="M4760 4909 c-14 -11 -18 -17 -10 -13 8 4 0 -9 -18 -30 -19 -21 -31
-45 -28 -53 4 -9 2 -11 -6 -7 -7 5 -9 0 -6 -14 3 -12 1 -24 -6 -27 -8 -3 -8
-7 1 -11 10 -4 9 -9 -2 -21 -8 -8 -13 -19 -10 -24 4 -5 1 -9 -6 -9 -7 0 -9 10
-5 30 3 17 4 30 1 30 -10 0 -60 -54 -57 -62 3 -12 -30 -38 -40 -32 -4 2 -10
-1 -14 -7 -4 -7 -3 -9 4 -5 5 3 12 0 15 -6 3 -10 7 -10 20 0 9 8 21 11 27 7
21 -13 9 -25 -35 -36 -25 -6 -45 -15 -45 -20 0 -4 17 -21 38 -36 46 -35 61
-54 55 -69 -6 -17 -39 -24 -54 -10 -7 6 0 -5 17 -25 26 -32 49 -34 37 -3 -2 7
6 18 19 25 21 11 22 11 9 -4 -40 -50 48 14 145 104 30 28 72 55 102 65 29 10
52 22 52 26 0 4 -7 5 -16 1 -15 -5 -15 -3 0 26 9 17 21 31 26 31 6 0 10 6 10
14 0 12 45 50 60 51 3 0 23 20 45 45 l40 45 -37 -30 c-20 -17 -37 -35 -37 -42
-1 -6 -10 -9 -21 -6 -13 3 -22 -1 -26 -11 -7 -18 -82 -61 -91 -52 -3 2 9 12
25 20 40 21 48 34 18 32 -13 0 -23 -3 -20 -5 4 -4 -41 -41 -51 -41 -3 0 -4 4
0 9 3 6 -4 15 -15 21 -26 14 -25 27 3 51 l22 20 -35 -16 -35 -16 30 27 c31 28
40 50 21 52 -52 5 -95 16 -90 23 8 14 1 10 -26 -12z m-125 -199 c-3 -5 -11
-10 -16 -10 -6 0 -7 5 -4 10 3 6 11 10 16 10 6 0 7 -4 4 -10z"/>
<path d="M4950 4926 c0 -2 7 -9 15 -16 13 -11 14 -10 9 4 -5 14 -24 23 -24 12z"/>
<path d="M4995 4889 c4 -11 -2 -23 -17 -33 -12 -9 -18 -16 -12 -16 6 0 19 9
29 20 15 16 16 23 6 33 -10 9 -11 9 -6 -4z"/>
<path d="M4180 4870 c0 -19 3 -21 12 -12 9 9 9 15 0 24 -9 9 -12 7 -12 -12z"/>
<path d="M2840 4850 c0 -5 -10 -10 -22 -10 -41 0 -99 -20 -92 -32 4 -6 3 -8
-4 -4 -15 9 -52 -33 -52 -61 0 -24 40 -50 97 -63 34 -8 73 10 73 33 0 7 -4 6
-11 -3 -8 -11 -12 -12 -16 -2 -2 6 -11 12 -20 12 -11 0 -13 7 -8 30 4 19 3 30
-4 30 -6 0 -11 -8 -11 -17 0 -13 -3 -14 -12 -5 -9 9 -4 19 21 42 26 26 35 29
47 19 8 -6 17 -9 21 -5 9 9 43 -24 44 -43 0 -10 2 -12 6 -3 2 6 9 10 14 6 5
-3 9 -1 9 4 0 14 -26 33 -33 25 -4 -3 -7 3 -7 13 0 20 -17 44 -32 44 -4 0 -8
-4 -8 -10z"/>
<path d="M4895 4780 c-3 -5 -2 -10 4 -10 5 0 13 5 16 10 3 6 2 10 -4 10 -5 0
-13 -4 -16 -10z"/>
<path d="M2130 4758 c-108 -63 -329 -270 -431 -403 -163 -212 -303 -517 -354
-765 -76 -379 -65 -592 50 -980 22 -73 66 -192 78 -208 12 -15 19 -72 9 -72
-4 0 -23 -15 -43 -33 -19 -17 -28 -27 -20 -20 9 6 28 14 43 18 15 4 30 16 34
28 6 20 7 20 20 2 15 -21 18 -36 7 -33 -12 4 -134 -81 -177 -124 -22 -21 -46
-38 -53 -38 -7 0 -13 -4 -13 -9 0 -5 -22 -33 -50 -61 -27 -28 -63 -70 -79 -93
-32 -47 -50 -94 -32 -83 6 4 11 13 11 21 0 7 6 15 14 18 14 6 14 2 1 -68 -5
-25 -3 -23 8 8 20 50 57 97 152 192 105 104 143 135 161 128 12 -4 12 -8 2
-21 -10 -12 -10 -16 -1 -19 8 -3 9 -11 3 -26 -19 -49 -23 -63 -21 -74 1 -7 -3
-13 -8 -13 -5 0 -12 -8 -14 -18 -2 -9 -3 1 -1 23 2 30 1 35 -6 20 -26 -59 6
-114 89 -153 50 -24 52 -47 4 -61 l-38 -10 38 5 c21 3 46 8 55 11 12 5 11 1
-5 -16 -27 -29 -36 -91 -13 -92 23 -1 -92 -36 -147 -44 -26 -3 -57 -12 -68
-19 -25 -16 -104 -28 -167 -26 -27 0 -48 -4 -48 -9 0 -6 -28 -12 -62 -14 l-63
-3 70 -2 c137 -4 328 42 615 148 187 68 167 65 209 33 48 -39 127 -84 134 -77
3 3 10 -4 17 -15 6 -12 15 -21 21 -21 5 0 34 -18 64 -40 30 -22 58 -40 63 -40
5 0 16 -7 23 -17 8 -9 28 -22 44 -30 17 -7 46 -23 65 -35 52 -32 140 -73 185
-88 22 -7 45 -16 51 -21 9 -8 102 -35 149 -45 11 -2 53 -13 94 -23 40 -11 79
-17 87 -14 8 3 14 1 14 -4 0 -6 55 -16 123 -23 67 -7 132 -19 145 -26 12 -8
22 -10 22 -4 0 23 19 8 22 -18 l4 -27 11 26 c11 24 18 27 85 34 67 6 136 15
228 31 30 6 32 8 15 15 -13 6 -7 6 19 2 26 -4 37 -2 32 5 -4 6 2 8 16 4 16 -4
19 -2 13 8 -6 10 -3 12 13 8 12 -4 22 -2 22 4 0 6 11 7 26 4 18 -5 24 -3 19 5
-5 8 -1 9 15 4 16 -5 20 -4 15 5 -5 9 -2 10 14 5 12 -4 21 -2 21 4 0 6 7 7 17
4 11 -4 14 -3 9 5 -5 8 -2 10 8 6 9 -3 16 -1 16 5 0 6 3 10 8 9 4 -1 17 3 30
10 12 7 26 10 31 7 5 -3 11 0 13 5 2 6 39 27 83 48 261 122 526 339 677 554
32 46 62 88 68 95 5 7 10 15 10 18 0 3 9 18 20 33 18 25 19 31 6 72 -13 44
-14 45 -58 48 -40 3 -45 5 -41 23 4 15 0 22 -16 26 -11 3 -21 13 -21 23 0 18
-51 47 -132 76 -55 19 -92 45 -77 55 8 5 -1 13 -26 23 -20 9 -41 16 -46 16 -5
0 -9 5 -9 10 0 6 10 10 23 10 21 1 21 1 3 11 -14 9 -20 8 -27 -2 -6 -10 -13
-11 -31 -2 -13 7 -34 15 -46 18 -17 5 -22 12 -19 26 3 10 1 19 -4 19 -5 0 -9
-4 -9 -10 0 -5 -9 -10 -20 -10 -11 0 -19 6 -18 13 2 7 -6 11 -19 10 -13 -2
-23 2 -23 7 0 6 5 10 11 10 5 0 7 5 4 10 -3 6 -15 10 -25 10 -10 0 -25 6 -32
13 -17 17 -108 51 -115 43 -3 -3 -13 3 -22 13 -12 14 -22 16 -39 10 -13 -5
-20 -13 -17 -19 3 -5 1 -10 -5 -10 -6 0 -9 -4 -6 -8 2 -4 -7 -9 -20 -10 -14
-1 -41 -14 -60 -29 -20 -14 -84 -59 -142 -98 -59 -39 -106 -77 -104 -84 1 -7
-2 -10 -7 -7 -5 4 -54 -21 -107 -54 -54 -33 -107 -60 -119 -59 -14 1 -12 3 10
10 17 5 55 27 85 49 102 73 191 135 241 166 27 17 46 34 42 37 -3 4 0 7 8 7 8
0 37 18 66 40 29 21 67 47 85 56 l33 17 -35 13 c-19 7 -28 13 -20 13 50 3
-156 78 -420 152 -19 6 -49 17 -65 24 -17 8 -53 20 -79 27 -32 9 -51 20 -56
34 -10 25 -52 54 -80 54 -11 0 -20 7 -20 15 0 9 -9 15 -21 15 -11 0 -37 18
-58 40 -20 22 -41 40 -45 40 -12 0 -66 57 -66 69 0 6 -8 11 -19 11 -10 0 -24
7 -31 15 -7 8 -21 15 -32 15 -10 0 -30 7 -43 16 -14 9 -31 14 -39 11 -21 -8
-26 15 -9 35 13 15 12 18 -11 33 -15 10 -43 23 -64 30 -20 7 -37 19 -37 27 0
7 -18 19 -40 26 -22 7 -45 19 -51 27 -9 12 -14 12 -36 1 -26 -14 -27 -12 -59
38 -18 28 -32 54 -31 59 1 4 -2 7 -7 7 -5 0 -15 15 -22 33 -7 17 -27 57 -44
87 -51 92 -133 296 -122 306 3 3 19 -2 36 -10 36 -19 52 -20 86 -4 30 14 42
50 27 83 -13 28 0 42 18 20 9 -11 16 -12 25 -5 16 13 198 5 223 -9 22 -13 7
-14 -17 -2 -10 6 -23 6 -32 0 -11 -7 -9 -9 8 -9 12 0 34 -11 50 -24 15 -12 35
-21 43 -18 13 5 13 3 1 -11 -17 -21 -11 -21 25 -2 24 12 26 15 9 16 -11 0 -14
3 -7 6 6 2 12 10 12 16 0 17 -36 38 -53 31 -8 -3 -27 6 -43 19 l-28 24 22 28
c17 21 19 31 11 41 -6 7 -9 26 -8 41 2 15 -1 29 -6 31 -6 1 -10 -8 -10 -20 0
-13 -6 -27 -13 -31 -7 -5 -9 -13 -6 -19 4 -7 2 -8 -5 -4 -11 7 -41 -15 -41
-31 0 -4 -13 -17 -28 -28 l-27 -19 28 33 c15 18 27 37 27 42 0 6 7 17 15 25 9
9 15 34 15 60 0 30 4 43 13 42 16 -4 13 132 -4 142 -6 4 -8 13 -5 19 4 6 4 16
0 22 -5 8 -9 8 -14 -1 -5 -8 -10 -2 -15 19 -6 27 -45 65 -45 44 0 -4 -4 -2 -9
6 -8 12 -12 12 -24 2 -9 -7 -26 -9 -41 -5 -21 5 -26 3 -26 -11 0 -17 -1 -17
-20 0 -16 14 -22 15 -35 5 -8 -7 -23 -9 -32 -5 -16 6 -16 8 5 16 23 9 29 24
12 34 -16 10 -63 -22 -90 -59 -25 -36 -44 -44 -55 -26 -4 6 -16 8 -27 4 -29
-9 -13 15 18 26 32 12 30 25 -3 28 -15 1 -30 7 -33 13 -4 6 -11 5 -19 -5 -7
-8 -10 -20 -6 -26 3 -5 -3 -22 -14 -36 -20 -25 -21 -25 -21 -6 0 12 11 52 25
89 30 79 38 133 22 132 -7 0 -28 -10 -47 -21z m330 -197 c0 -5 3 -16 6 -25 10
-26 -10 -18 -23 9 -9 20 -8 25 3 25 8 0 14 -4 14 -9z m-50 -471 c0 -5 -7 -10
-15 -10 -8 0 -15 5 -15 10 0 6 7 10 15 10 8 0 15 -4 15 -10z m177 -665 c0 -8
-4 -12 -9 -9 -5 3 -6 10 -3 15 9 13 12 11 12 -6z m47 7 c3 -5 -1 -9 -9 -9 -8
0 -12 4 -9 9 3 4 7 8 9 8 2 0 6 -4 9 -8z m184 -708 c12 -8 22 -25 22 -37 0
-50 -113 -183 -255 -303 -44 -37 -80 -72 -80 -78 -1 -6 -6 -10 -13 -8 -15 3
-118 -66 -151 -102 -22 -24 -25 -24 -37 -8 -11 16 -13 16 -33 -2 -20 -18 -23
-19 -38 -3 -10 9 -13 17 -7 17 5 0 48 36 94 80 62 58 79 79 63 77 -12 0 -20
-4 -17 -8 2 -4 -3 -12 -11 -19 -13 -11 -14 -10 -8 6 6 17 5 17 -11 5 -9 -8
-15 -20 -12 -27 5 -13 -56 -74 -96 -94 -12 -7 -33 -22 -45 -33 -13 -11 -31
-21 -40 -22 -10 -1 -28 -7 -41 -14 -12 -6 -27 -9 -33 -5 -8 4 -6 10 5 16 9 5
20 7 25 3 5 -3 12 -1 16 5 4 6 12 7 18 4 7 -4 5 1 -5 11 -15 17 -19 16 -72 -9
-31 -15 -62 -24 -68 -20 -7 4 -8 3 -4 -4 8 -13 -60 -45 -76 -36 -14 9 19 41
81 76 129 74 248 161 289 210 l27 33 -42 -35 c-22 -19 -53 -45 -67 -57 -55
-46 -255 -163 -277 -163 -20 1 -18 4 16 22 22 11 47 29 55 38 8 9 40 34 70 54
117 77 184 135 207 180 17 34 13 39 -50 60 -27 9 -56 23 -64 32 -9 8 -18 12
-21 9 -10 -10 51 -64 85 -76 18 -6 33 -17 33 -24 0 -31 -217 -205 -256 -205
-12 0 -64 63 -64 77 1 4 32 30 69 56 37 26 83 65 102 85 l34 36 -37 -32 c-85
-71 -231 -151 -243 -132 -4 6 0 10 7 10 23 1 228 155 228 171 0 6 -8 1 -18
-11 -28 -34 -69 -33 -132 2 -30 17 -58 35 -61 39 -3 5 -36 24 -73 43 -72 36
-73 49 -2 48 35 -1 102 -19 241 -63 64 -21 146 -12 225 24 41 19 126 49 188
67 210 60 306 69 360 34z m1572 -189 c16 -19 0 -19 -26 0 -16 12 -16 14 -3 15
9 0 22 -7 29 -15z m-110 -110 c0 -8 -4 -15 -8 -15 -13 0 -43 36 -36 43 10 10
44 -12 44 -28z m-2653 -141 c-3 -3 -12 -4 -19 -1 -8 3 -5 6 6 6 11 1 17 -2 13
-5z m3116 -59 c-3 -9 -8 -14 -10 -11 -3 3 -2 9 2 15 9 16 15 13 8 -4z m28 -8
c-10 -9 -11 -8 -5 6 3 10 9 15 12 12 3 -3 0 -11 -7 -18z m-3239 -44 c-2 -27
-8 -52 -13 -57 -12 -13 -12 -39 0 -32 11 7 8 -20 -3 -31 -4 -4 -7 -3 -5 2 1 6
0 17 -4 25 -26 71 -26 79 -1 110 14 16 27 30 27 30 1 0 1 -21 -1 -47z m42 32
c-4 -8 -11 -15 -16 -15 -6 0 -5 6 2 15 7 8 14 15 16 15 2 0 1 -7 -2 -15z m838
-18 c-20 -69 -252 -409 -252 -369 0 5 3 12 8 16 4 4 7 11 8 14 0 4 6 27 13 51
13 46 9 60 -11 44 -10 -8 -21 -2 -43 22 l-31 33 26 5 c17 4 32 -1 47 -15 l22
-20 -2 22 c-1 17 12 34 43 59 24 20 74 64 110 98 36 35 66 63 67 63 1 0 -2
-11 -5 -23z m-212 -32 c0 -9 -9 -15 -22 -15 -22 1 -23 1 -4 15 25 19 26 19 26
0z m-149 -46 c-16 -6 -28 -6 -35 1 -7 7 1 10 25 9 32 0 33 -1 10 -10z m92 4
c-7 -2 -19 -2 -25 0 -7 3 -2 5 12 5 14 0 19 -2 13 -5z m1090 -144 c40 -21 48
-51 23 -85 -14 -19 -15 -18 -35 4 -11 13 -21 28 -23 34 -2 5 -15 11 -30 11
-29 2 -27 20 5 35 29 14 34 14 60 1z m-1423 -128 c0 -10 -101 -51 -125 -51 -8
0 -16 -4 -19 -9 -3 -5 -17 -11 -31 -13 -21 -4 -26 -1 -32 20 -4 17 -2 27 7 30
10 4 9 6 -1 14 -10 6 -3 8 21 5 19 -3 58 -2 85 3 73 11 95 11 95 1z"/>
<path d="M2490 2640 c-25 -5 -67 -15 -93 -24 -27 -8 -65 -13 -85 -10 l-37 4
40 -14 c22 -8 50 -15 62 -15 13 -1 37 -14 54 -29 26 -23 32 -38 38 -86 l6 -57
81 78 c88 85 105 116 81 140 -18 19 -87 25 -147 13z"/>
<path d="M2354 2534 c3 -9 6 -22 6 -30 0 -8 7 -14 15 -14 18 0 18 1 5 34 -5
14 -15 26 -21 26 -6 0 -8 -7 -5 -16z"/>
<path d="M2100 2222 c0 -6 9 -12 20 -15 11 -3 20 -3 20 -1 0 2 -9 8 -20 14
-11 6 -20 7 -20 2z"/>
<path d="M2311 2216 c-9 -10 -9 -16 -1 -21 13 -8 42 14 34 26 -8 13 -20 11
-33 -5z"/>
<path d="M1501 2171 c-7 -13 -6 -24 4 -37 8 -11 15 -14 15 -7 0 6 -5 15 -10
18 -7 4 -7 13 0 26 6 10 8 19 6 19 -3 0 -10 -8 -15 -19z"/>
<path d="M5000 4729 c-12 -16 -20 -32 -17 -35 2 -3 14 11 25 31 26 43 21 46
-8 4z"/>
<path d="M2857 4730 c-3 -11 -2 -20 2 -20 5 0 16 9 26 20 18 19 17 20 -2 20
-12 0 -23 -8 -26 -20z"/>
<path d="M4510 4545 c19 -19 36 -35 38 -35 8 0 -53 69 -62 69 -6 1 5 -15 24
-34z"/>
<path d="M2829 4432 c-27 -23 -21 -48 16 -62 32 -12 63 5 72 39 10 41 -46 56
-88 23z"/>
<path d="M5010 4369 c-19 -4 -78 -16 -130 -25 -114 -19 -173 -48 -140 -69 14
-9 118 -188 167 -290 24 -49 41 -79 37 -65 -30 105 -24 168 25 299 33 88 39
97 79 119 24 14 71 27 110 32 l67 7 -90 1 c-49 0 -106 -4 -125 -9z"/>
<path d="M5562 4350 c0 -19 2 -27 5 -17 2 9 2 25 0 35 -3 9 -5 1 -5 -18z"/>
<path d="M4675 4360 c3 -5 8 -10 11 -10 2 0 4 5 4 10 0 6 -5 10 -11 10 -5 0
-7 -4 -4 -10z"/>
<path d="M5238 4363 c7 -3 16 -2 19 1 4 3 -2 6 -13 5 -11 0 -14 -3 -6 -6z"/>
<path d="M2728 4253 c6 -2 18 -2 25 0 6 3 1 5 -13 5 -14 0 -19 -2 -12 -5z"/>
<path d="M2697 4190 c3 -11 11 -20 18 -20 8 0 11 8 8 20 -3 11 -11 20 -18 20
-8 0 -11 -8 -8 -20z"/>
<path d="M2696 4146 c10 -8 21 -12 24 -10 5 6 -21 24 -34 24 -6 0 -1 -6 10
-14z"/>
<path d="M4084 4135 c-48 -33 -67 -120 -39 -174 27 -53 71 -81 127 -81 45 0
54 4 89 39 42 42 50 62 21 54 -10 -2 -24 3 -31 11 -8 9 -20 16 -27 16 -8 0
-14 5 -14 10 0 6 5 10 10 10 6 0 10 8 10 18 0 14 2 15 10 2 5 -8 12 -11 15 -8
4 4 0 17 -9 30 -9 12 -16 17 -16 11 0 -7 -14 -11 -34 -10 -19 1 -32 5 -29 10
2 4 -5 7 -16 7 -28 0 -27 16 2 25 21 7 21 8 -6 12 -20 3 -27 9 -23 19 7 18
-14 18 -40 -1z"/>
<path d="M4180 4121 c0 -5 5 -13 10 -16 6 -3 10 -2 10 4 0 5 -4 13 -10 16 -5
3 -10 2 -10 -4z"/>
<path d="M2798 4073 c6 -2 18 -2 25 0 6 3 1 5 -13 5 -14 0 -19 -2 -12 -5z"/>
<path d="M2810 4050 c-13 -9 -13 -10 0 -10 8 0 22 5 30 10 13 9 13 10 0 10 -8
0 -22 -5 -30 -10z"/>
<path d="M2750 4036 c0 -2 11 -6 25 -8 13 -3 22 -1 19 3 -5 9 -44 13 -44 5z"/>
<path d="M2960 3976 c0 -2 11 -6 25 -8 13 -3 22 -1 19 3 -5 9 -44 13 -44 5z"/>
<path d="M5164 3938 l-19 -23 23 19 c12 11 22 21 22 23 0 8 -8 2 -26 -19z"/>
<path d="M2715 3901 c-3 -5 -1 -12 5 -16 12 -7 30 2 30 16 0 12 -27 12 -35 0z"/>
<path d="M5299 3893 c-13 -16 -12 -17 4 -4 9 7 17 15 17 17 0 8 -8 3 -21 -13z"/>
<path d="M5071 3828 c-17 -18 -31 -37 -31 -42 0 -5 1 -7 3 -5 1 2 18 21 36 42
19 20 32 37 28 37 -3 0 -20 -15 -36 -32z"/>
<path d="M2593 3819 c-18 -11 -38 -35 -44 -54 -11 -28 -15 -32 -30 -22 -24 15
-33 4 -25 -28 6 -22 11 -25 44 -23 20 1 53 -2 72 -5 83 -17 127 69 69 132 -25
26 -45 26 -86 0z"/>
<path d="M4990 3761 c0 -17 18 -21 24 -6 3 9 0 15 -9 15 -8 0 -15 -4 -15 -9z"/>
<path d="M2930 3730 c0 -5 5 -10 10 -10 6 0 10 5 10 10 0 6 -4 10 -10 10 -5 0
-10 -4 -10 -10z"/>
<path d="M2564 3595 c-4 -9 1 -23 12 -34 17 -16 21 -16 35 -2 23 24 17 46 -14
49 -18 2 -29 -2 -33 -13z"/>
<path d="M2815 3565 c53 -26 75 -31 75 -16 0 5 -21 15 -47 22 -77 21 -81 21
-28 -6z"/>
<path d="M2903 3545 c0 -10 6 -14 14 -10 8 3 17 5 19 5 2 0 4 5 4 10 0 6 -8
10 -18 10 -10 0 -19 -7 -19 -15z"/>
<path d="M2520 3529 c0 -11 4 -18 10 -14 5 3 7 12 3 20 -7 21 -13 19 -13 -6z"/>
<path d="M3071 3493 c-19 -10 -29 -19 -23 -21 7 -2 12 -8 12 -12 0 -5 -25 0
-57 11 -65 22 -63 22 -63 11 0 -19 197 -102 279 -117 85 -15 151 -35 206 -60
17 -8 91 -37 165 -65 74 -28 156 -62 181 -75 26 -14 61 -25 78 -25 17 0 31 -4
31 -9 0 -5 8 -12 18 -16 21 -9 120 -35 130 -35 10 1 -79 40 -97 43 -9 2 -31
13 -50 25 -19 11 -39 18 -45 15 -6 -3 -8 -3 -4 2 4 4 1 14 -7 21 -17 18 -94
53 -115 54 -8 0 -55 25 -105 55 -71 43 -114 60 -195 81 -58 15 -112 33 -121
41 -11 9 -26 12 -43 7 -20 -5 -26 -2 -26 10 0 9 -8 16 -19 16 -11 0 -22 4 -26
9 -3 5 -18 12 -35 16 -16 3 -30 13 -32 20 -2 12 -9 11 -37 -2z m579 -249 c0
-2 -7 -4 -15 -4 -8 0 -15 4 -15 10 0 5 7 7 15 4 8 -4 15 -8 15 -10z m127 -40
c-3 -3 -12 -4 -19 -1 -8 3 -5 6 6 6 11 1 17 -2 13 -5z"/>
<path d="M5081 3224 c0 -11 3 -14 6 -6 3 7 2 16 -1 19 -3 4 -6 -2 -5 -13z"/>
<path d="M5087 3183 c-4 -3 -7 -11 -7 -17 0 -6 5 -5 12 2 6 6 9 14 7 17 -3 3
-9 2 -12 -2z"/>
<path d="M3612 3118 c-27 -27 -4 -98 33 -98 7 0 23 9 36 19 l24 19 -27 12
c-15 7 -28 22 -30 33 -4 25 -20 31 -36 15z"/>
<path d="M4658 2993 c6 -2 12 -11 12 -19 0 -8 10 -24 22 -36 13 -13 24 -34 25
-48 3 -22 2 -22 -13 8 -9 17 -20 32 -25 32 -5 0 -9 6 -9 14 0 8 -5 18 -11 22
-8 5 -10 -1 -7 -20 3 -14 1 -26 -5 -26 -5 0 -15 -7 -22 -17 -10 -13 -9 -20 4
-35 8 -10 21 -18 29 -18 7 0 11 -4 7 -9 -7 -13 32 -34 47 -25 7 4 8 3 4 -4 -5
-9 6 -12 38 -12 30 0 46 4 46 13 0 8 4 7 11 -3 8 -12 9 -11 5 5 -3 11 -8 32
-12 48 -3 15 -10 27 -15 27 -5 0 -6 -6 -3 -14 3 -9 -3 -13 -23 -12 -19 1 -29
7 -32 21 -3 17 -1 18 13 6 9 -8 16 -9 16 -3 0 13 -58 72 -71 72 -5 0 -9 9 -9
20 0 13 -6 20 -17 19 -11 0 -13 -3 -5 -6z m27 -93 c3 -5 -1 -10 -9 -10 -9 0
-16 5 -16 10 0 6 4 10 9 10 6 0 13 -4 16 -10z m10 -30 c8 -13 -5 -13 -25 0
-13 8 -13 10 2 10 9 0 20 -4 23 -10z m20 -29 c-3 -6 -11 -11 -16 -11 -5 0 -4
6 3 14 14 16 24 13 13 -3z"/>
<path d="M4566 2960 c13 -21 21 -26 30 -19 8 7 14 6 19 -2 6 -8 10 -7 16 2 15
24 10 32 -16 27 -20 -4 -23 -3 -14 8 9 11 5 14 -20 14 l-32 0 17 -30z"/>
<path d="M4750 2936 c0 -2 7 -7 16 -10 8 -3 12 -2 9 4 -6 10 -25 14 -25 6z"/>
<path d="M4601 2914 c0 -11 3 -14 6 -6 3 7 2 16 -1 19 -3 4 -6 -2 -5 -13z"/>
<path d="M4910 2730 c13 -11 25 -20 28 -20 3 0 -3 9 -13 20 -10 11 -23 20 -28
20 -6 0 0 -9 13 -20z"/>
<path d="M4400 2580 c0 -6 7 -10 15 -10 8 0 15 2 15 4 0 2 -7 6 -15 10 -8 3
-15 1 -15 -4z"/>
<path d="M1443 2113 c-3 -10 -8 -22 -10 -28 -3 -5 3 -1 11 9 16 20 21 36 11
36 -3 0 -8 -8 -12 -17z"/>
<path d="M1360 1811 c-41 -8 -66 -17 -55 -18 11 -2 54 5 95 16 91 23 64 24
-40 2z"/>
<path d="M1233 1783 c9 -2 23 -2 30 0 6 3 -1 5 -18 5 -16 0 -22 -2 -12 -5z"/>
<path d="M900 1692 c0 -20 36 -51 65 -57 l30 -7 -30 16 c-16 9 -38 26 -47 37
-10 12 -18 17 -18 11z"/>
</g>
</svg>
