<?xml version="1.0" standalone="no"?>
<svg xmlns:xlink="http://www.w3.org/1999/xlink" id="wave" style="transform:rotate(0deg); transition: 0.3s" viewBox="0 0 1440 490" version="1.1" xmlns="http://www.w3.org/2000/svg"><defs><linearGradient id="sw-gradient-0" x1="0" x2="0" y1="1" y2="0"><stop stop-color="rgba(34.009, 31.457, 30.637, 1)" offset="0%"/><stop stop-color="rgba(213.876, 208.022, 195.084, 1)" offset="100%"/></linearGradient></defs><path style="transform:translate(0, 0px); opacity:1" fill="url(#sw-gradient-0)" d="M0,98L18.5,147C36.9,196,74,294,111,318.5C147.7,343,185,294,222,302.2C258.5,310,295,376,332,400.2C369.2,425,406,408,443,351.2C480,294,517,196,554,171.5C590.8,147,628,196,665,253.2C701.5,310,738,376,775,367.5C812.3,359,849,278,886,277.7C923.1,278,960,359,997,375.7C1033.8,392,1071,343,1108,277.7C1144.6,212,1182,131,1218,147C1255.4,163,1292,278,1329,269.5C1366.2,261,1403,131,1440,130.7C1476.9,131,1514,261,1551,261.3C1587.7,261,1625,131,1662,114.3C1698.5,98,1735,196,1772,236.8C1809.2,278,1846,261,1883,236.8C1920,212,1957,180,1994,204.2C2030.8,229,2068,310,2105,302.2C2141.5,294,2178,196,2215,196C2252.3,196,2289,294,2326,277.7C2363.1,261,2400,131,2437,138.8C2473.8,147,2511,294,2548,302.2C2584.6,310,2622,180,2640,114.3L2658.5,49L2658.5,490L2640,490C2621.5,490,2585,490,2548,490C2510.8,490,2474,490,2437,490C2400,490,2363,490,2326,490C2289.2,490,2252,490,2215,490C2178.5,490,2142,490,2105,490C2067.7,490,2031,490,1994,490C1956.9,490,1920,490,1883,490C1846.2,490,1809,490,1772,490C1735.4,490,1698,490,1662,490C1624.6,490,1588,490,1551,490C1513.8,490,1477,490,1440,490C1403.1,490,1366,490,1329,490C1292.3,490,1255,490,1218,490C1181.5,490,1145,490,1108,490C1070.8,490,1034,490,997,490C960,490,923,490,886,490C849.2,490,812,490,775,490C738.5,490,702,490,665,490C627.7,490,591,490,554,490C516.9,490,480,490,443,490C406.2,490,369,490,332,490C295.4,490,258,490,222,490C184.6,490,148,490,111,490C73.8,490,37,490,18,490L0,490Z"/><defs><linearGradient id="sw-gradient-1" x1="0" x2="0" y1="1" y2="0"><stop stop-color="rgba(38.563, 35.834, 34.957, 1)" offset="0%"/><stop stop-color="rgba(52.319, 56.777, 49.865, 1)" offset="100%"/></linearGradient></defs><path style="transform:translate(0, 50px); opacity:0.9" fill="url(#sw-gradient-1)" d="M0,147L18.5,179.7C36.9,212,74,278,111,277.7C147.7,278,185,212,222,212.3C258.5,212,295,278,332,261.3C369.2,245,406,147,443,147C480,147,517,245,554,261.3C590.8,278,628,212,665,204.2C701.5,196,738,245,775,294C812.3,343,849,392,886,351.2C923.1,310,960,180,997,147C1033.8,114,1071,180,1108,171.5C1144.6,163,1182,82,1218,81.7C1255.4,82,1292,163,1329,220.5C1366.2,278,1403,310,1440,294C1476.9,278,1514,212,1551,228.7C1587.7,245,1625,343,1662,392C1698.5,441,1735,441,1772,432.8C1809.2,425,1846,408,1883,383.8C1920,359,1957,327,1994,326.7C2030.8,327,2068,359,2105,326.7C2141.5,294,2178,196,2215,171.5C2252.3,147,2289,196,2326,187.8C2363.1,180,2400,114,2437,130.7C2473.8,147,2511,245,2548,253.2C2584.6,261,2622,180,2640,138.8L2658.5,98L2658.5,490L2640,490C2621.5,490,2585,490,2548,490C2510.8,490,2474,490,2437,490C2400,490,2363,490,2326,490C2289.2,490,2252,490,2215,490C2178.5,490,2142,490,2105,490C2067.7,490,2031,490,1994,490C1956.9,490,1920,490,1883,490C1846.2,490,1809,490,1772,490C1735.4,490,1698,490,1662,490C1624.6,490,1588,490,1551,490C1513.8,490,1477,490,1440,490C1403.1,490,1366,490,1329,490C1292.3,490,1255,490,1218,490C1181.5,490,1145,490,1108,490C1070.8,490,1034,490,997,490C960,490,923,490,886,490C849.2,490,812,490,775,490C738.5,490,702,490,665,490C627.7,490,591,490,554,490C516.9,490,480,490,443,490C406.2,490,369,490,332,490C295.4,490,258,490,222,490C184.6,490,148,490,111,490C73.8,490,37,490,18,490L0,490Z"/></svg>