<?xml version="1.0" encoding="UTF-8"?>
<svg id="Layer_1" xmlns="http://www.w3.org/2000/svg" version="1.1" viewBox="0 0 1366 768">
  <!-- Generator: Adobe Illustrator 29.6.1, SVG Export Plug-In . SVG Version: 2.1.1 Build 9)  -->
  <defs>
    <style>
      .st0 {
        fill: #fff;
      }
    </style>
  </defs>
  <path class="st0" d="M1366,0v768H0V0h1366ZM595,157h-59v181l9.9,1.1v5.3c.3,1.1,3.2,0,2.1,2.6h-10s0,159.5,0,159.5c-1.4,8.9-1.7,17.8-4.5,26.5s-5.4,10.8-7.5,16.5c.8,1.4,1.9-1.4,2.2-1.8,2.1-3.2,4.3-7.8,5.6-11.4s5.2-17.2,5.2-21.8v-166.5h55v161.5c-4.8,73.4-70.5,98.7-134.5,103.5-79.9,6-181-9.2-182.5-109.5v-155.5h55v159.5c2.6,71.3,73.1,88.1,132.4,78.4,17.8-2.9,37.5-9.8,50.6-22.4-1.1-1.7-2.2.4-3,1-13.3,10.3-27.2,16-43.8,19.2-25,4.8-70.1,4.6-92.5-8.6-1.4-.8-1-3-1.9-3.9s-2.9-.2-3.8-.8c-5.8-3.9-9.9-13.4-13-18.6s-3.7-4-3.9-4.5c-.9-2.2-.5-5.5-1.1-7.5s-1.7-.6-1.9-1.4c-1-3.6-.4-8.6-1-11.6s-1.8-.5-2-1.3c-.6-2.7.2-7.6,0-10.9-3.4-49.3.7-99.8-1.3-149.3-2.2-.2-2.3-4.6-2.4-6.8-.8-10.4,4.1-6.2,9.4-12.5,12.5.2,21.5-5.7,32.6-8s.5-1.7,1.4-2c7.6-2.2,14.4-4.9,21.5-8.1s4.1-3.7,4.5-3.9c1.5-.6,5-.4,6-1.3s.6-2.9,1.4-3.6,3.8-.7,5.5-1.6,1.9-2.6,2.7-3.3c8.6-6.9,17.3-12.6,24.6-21.1s17.5-24,20-35.6,1.7-.5,2-1.4c.8-2.7.4-7,1.1-9.6s1.8-.6,2-1.3c1.9-8.7,2-40.1,0-48.7s-1.8-.5-2-1.3c-1.2-5.7-1.1-9-3.1-14.6s-5.8-9.3-7.7-12-1.8-7.8-4.5-10.5-3.2-.7-3.6-1.4c-1-1.5-.8-2.3-2.9-5.1s-6.9-10.2-7.5-10.6-2.5,0-3.8-.7c-2.8-1.6-9.9-10-13.2-12.2s-2.8.2-3.6-.3-.5-2.9-1.4-3.7-3.6-.6-5-1.3c-9.5-4.5-19.5-12.9-30.4-17.8-74.4-33.7-196.1-31.6-266.7,11-5.3,3.2-11.1,7.1-15.7,11.3,1.1,1.7,2.2-.5,3-1,31.4-21.8,64.7-33.8,102.6-39.4,91.5-13.4,260.1,7.6,251.4,133.4-7.4,106.8-162.5,127.5-244.6,118.5S30.5,274.2,72.8,169.3l10.2-17.3c-11,12.2-18.3,30.5-20.7,46.8-5.2,34.3,6.1,60.1,26.2,86.2s-.2,2.3.5,3.3c1.2,1.9,7.8,6.9,9.8,9s5.1,7.9,7.3,9.2,3.1.2,3.8.7.5,2.8,1.4,3.6,3.7.7,4.6,1.4.2,1.5,3.9,4.1c8.6,6,13.1,9.5,23.6,12.7s6.8,5.7,7.5,5.9c9.4,2.9,17.1,6.1,26.6,8.1s.5,1.8,1.3,2c3.6.9,9.4.3,12.7,1s.5,1.8,1.3,2c1.8.4,4-.4,5.7,0s.5,1.8,1.3,2c5.9,1.3,14.4-.6,18.6,2.7s12.7-2,15.2,2.4h41.4c.8,1.7,1,3.5,1.2,5.4,3.5,48.8-3.1,102,0,151.1s10.7,38.9,21.1,60.7,3.9,3,4.4,3.8c2.2,3.8,6.6,10.6,9.8,13.8s2.8.6,3.6,1.4.6,2.9,1.4,3.6,3.5.4,4.6,1.4.6,2.9,1.4,3.6,3.8,2,5.2,2.9c7.9,5,13.7,7.1,21.9,10.4s4.2,3.8,4.5,3.9c4.3,1.4,11.3,2.2,15.6,3.1s.5,1.7,1.4,2c3.6,1,8.6.4,11.7,1s.5,1.8,1.3,2c2.2.5,5.5-.5,7.7,0s.5,1.8,1.3,2c2.5.6,6.9-.2,9.9,0,25.4,1.9,52.6,1.9,78,0,3-.2,7.4.6,9.9,0s.5-1.8,1.3-2c2.5-.6,6.2.6,8.7,0s.5-1.8,1.3-2c3.3-.7,9.1-.1,12.7-1s5.9-3.9,6.3-4c5.5-1.3,9.3-1.2,14.6-3.1s9.5-4.9,13.5-6.9,7.5-2.4,8.4-3.7c2.3-3.3,2.5-3.4,6.2-6.1s6.9-3.1,7.5-3.5c.8-.6.6-2.8,1.4-3.6,2.1-2.1,7.2-3.5,9.8-6.9s3.1-7,4.2-8c2.3-2.2,4.4-2.7,6.8-6.9,3.8-6.7,4.8-12.4,7-19.6s1.5-.6,2.1-2.1c1.1-2.9.3-5.6.8-8s1.8-.5,2-1.3c.8-3.5-1.5-6,2.1-8.8v-163.1c-2-2.3-2.6-2.8-2-6.8l-2-.6v-2s2-.5,2-.5l-2-1.1c-1.1-5.5,1.8-5.2,2-6.1,1.3-5,1.1-2.2,2.5-4.2s-.1-4.7,2.6-6.5v-161.1c-2.6-1.9-1.8-4.7-3-6.8s-3-1-3.9-1.8c-2.4-2.4,1.6-2.2-4.5-3.8s-1.2-2.8-3.6-2.1v-5.9ZM599.6,97.4c-3.8-2.6-6.4-5.6-10.9-7.6-14.6-6.6-41.6-6.1-53.7,5.7l12.2-5.8c15.9-5.8,57.8-3.6,52.6,21.6-1.2,5.6-7.9,9.2-12.8,11.2-14.6,5.9-43.7,5.9-54-8s-2.7-7.9-1.8-11.8,2.9-3.3,2.8-5.7c-5.9,4-6.2,12.4-2.5,18s7.4,6.1,8.2,7.3.5,5.8,1.5,7.5,4.7,4.7,5,4.9c1.7.9,3.6.7,4.9,1.4s4.1,3.9,4.4,3.9c8.6,1.8,32.1,1.9,40.6,0s7.8-5.8,9-6.6,4.2-1.8,5.1-3.4.3-2.6.6-3.2c.5-.9,1.5-.8,1.8-1.5,1.5-3.6,1.4-11.9,0-15.5s-1.5-.7-1.9-1.5c-.9-1.8-1.8-5.4-4.1-6.7s-4.2-1.9-7.4-4.1ZM370,283c1.9.4,2.4-1,3.5-2,16.5-13.9,28.4-36.3,31.4-57.6,9.7-70.3-58.9-108.7-119.4-114.4-70-6.6-169.8,23.2-163.5,110.5,6.4,89.8,128.6,108.7,198.2,89.2,14.4-4,30.3-10.1,41.8-19.7l-21.3,11.2c-47.5,20.6-133.8,21.5-173.3-13.5-5.3-4.7-16.2-16.8-19.3-22.4-4.6-8.1-7.9-18.6-9-27.6-3.2-.7-2.5-22.4-1.7-23.4,3.3-4.2.7-4.4,1.7-8.6s1.7-.5,2-1.4c1.5-5.2,2.1-10.2,4.1-15.5s1.5-.7,1.9-1.5c.9-1.8.5-4.6,1.4-6s3.6-2.7,4.4-3.7c3-3.9,11.4-16.6,15-18.6s3.4-.6,4.1-1.2.6-2.8,1.4-3.6,3.8-1.9,5.2-2.8c7.3-4.6,14.5-8.4,21.9-12.1s12.8-4.2,18.1-5.3.5-1.8,1.3-2c3.7-.8,10.2-.2,13.7-1s.5-1.8,1.3-2c2.7-.6,7,.6,9.7,0s.5-1.8,1.3-2c3.9-.9,10.8.9,14.7,0s.5-1.8,1.3-2c2.1-.5,25.1-.5,26.1.3,4.9,3.8,9.9.4,15.6,1.7s.5,1.8,1.3,2c2.7.6,7-.6,9.7,0s.5,1.8,1.3,2c3.7.8,10.2.2,13.7,1s5.9,3.9,6.3,4c7.5,2.2,13.1,3.8,20.6,6.1s4,3.6,4.5,3.9c1.4.7,4.2.6,5,1.3,1.2,1,.2,1.5,3.9,4.1,8.2,5.8,18,14.1,24.3,22.4,8.6,11.4,11.1,33.8,9.9,47.6-2.2,25.2-16.1,45.8-33.9,62.6ZM102,132c-1.9-.4-2.4,1-3.5,2-2.8,2.4-7.1,6.7-9.5,9.5s-2.4,1.6-2,3.5l15-15ZM1229,337h-51l-4-23c-1.4-.2-2.5.2-3.7.8-4.1,2-9.7,7-14.6,9.4-40.5,20.4-112.7,24.2-152.7,1.3s-30.8-29.1-21.5-51.5,4.1-4.7,3-7c-9.3,12-10.1,27.5-2.7,40.7s6.2,9.8,8.5,13,4.2,3.2,4.4,3.6c.6,1.1-.1,2.9.3,3.6s3.8.6,4.7,1.4.6,2.3,1.2,3.1c3.9,4.8,10,7.2,15.3,8.8s4,3.6,4.5,3.9c2.2,1,4.6.6,6.5,1.1s.6,1.8,1.3,2c1.5.3,3.2-.3,4.7,0s.5,1.8,1.3,2c3.6.9,9.4.3,12.7,1s.5,1.8,1.3,2c2.7.6,7-.6,9.7,0s.5,1.8,1.3,2c2.6.6,6.5-.4,9.3,0-2.1,3.3-5.5,5.5-8,8.5s-2.4,1.6-2,3.5l18.5-19h62.5l-130,127.5,133,134.5h-62.5c-33.5-35.9-68.1-70.5-101.5-106.5-2.4-2.6-4-5.2-6.9-1.8-8.3,9.7-16.1,19.9-24.6,29.4-8,8.9-17,17.1-25,26-15.9,17.5-31,35.6-47,53h-61.5c2.8-4.2,7.3-7.2,10.5-11s2.6-2,1-3c-3.9,4.5-9.2,8.5-13,13s-1.9,1.3-1.5,3h16c.4,2.2-.7,5.9.3,7.8s3.2,3,3.4,3.1c1.3.4,3.1-.3,4.1.4s.1,1.5.9,1.7c4.7,1.1,38.8.7,44.9,0s1.2-1.6,2.2-2c1.5-.6,3.7-.4,5.5-1.1s2.4-3.2,3.1-3.6c1.4-.8,3.7-.8,4.5-1.6s.6-2.3,1.1-3.1c1.8-2.2,5.7-4.8,7.7-7,17.1-18.6,35.6-38.6,51.3-57,4.7-5.5,10-9.4,14-15s2.2-1,2.6-1.7c.8-1.3.2-3.3.6-3.9s3.6-.3,4.7-1.4.7-3.1,1.4-3.6c1.6-1.2,8-1,10.1-.1s.9,1.6,2,2.2,5,2.4,5.5,2.9c.7.8.6,2.4,1.2,3,10.2,11.4,22.2,22,31.4,32.4s14.7,13.9,21.4,21.6,4.6,6,6.6,8.4c4.2,4.8,10.8,8.7,15.4,13.6s5.2,7.9,7.3,9.2,3.1.2,3.8.7.5,2.9,1.4,3.6c1.3,1.1,5.4.8,7.1,1.3s.2,1.8,2.1,2c4.7.5,44.5,1.1,46.3-.4s0-1.5.9-1.7c1.4-.3,2.8.3,4.3-.5s2.9-2.9,3-3.1c.3-1.3.3-5.4,0-6.7s-1.6-.5-1.9-1.4c-1.2-2.9-1.7-7.4-4.3-10.1s-2.8-.6-3.6-1.4-.6-2.9-1.4-3.6-3.6-.4-4.6-1.4-.6-2.3-1.1-3.1c-4.1-5-9.8-10-14-15s-6.8-3.6-10.1-7.5c-10.1-11.8-21.3-23.1-31.9-34.5-.7-.7-5-5.2-5.4-5.4-6.1-3.5-7.7-6.9-13.4-11.7-3.6-8.6-17.4-14.8-22-22s-.5-4.3-1.3-6-1.8-.7-1.9-1.4c-.3-1.2-.3-4.4,0-5.7s1.5-.6,1.9-1.4.4-2.5,1-3.6c1.2-2.1,8.1-7,10.1-9.4s.5-2.5,1.2-3.1,3.5-.4,4.6-1.4.6-2.8,1.4-3.6c2-2,2.4-1.8,5.1-4.9s6.2-4.6,8.1-6.4c6-5.8,9.4-11.3,16.3-15.3s4.8-6.2,6.3-7.9c3.6-4.1,6-6.3,10.3-8.7s8.7-11.8,12.7-14.4,2.9.2,3.8-.8c2.6-2.8,7.7-11,10.4-13.6s3.1-.7,4.5-1.6,2.7-4.3,3.6-5.3c3.8-4.1,8.4-7.7,12.4-11.6,3.5-6.3-1.4-15.8,1.3-21s6.3-2.9,9.3-3.7,4.8-3.5,5.5-3.9c2-1.1,4.7-.6,6.6-1.1s.6-1.8,1.4-2c1.4-.3,7.2-.3,8.9,0s3.8,2.9,4.5,3.8c2.4,2.9.2,1.4,4.2,4.3s3.9,4.2,7.5,4.7c8,1.2,24.4.8,32.8.3s8-.9,8.3-1.2c.5-.4.5-2.3,1.1-3.2,2.2-3.1,1.7.1,3.1-6,.2-.8,1.5-.6,1.7-.9.5-.9.6-8.7.3-10.1s-1.8-.5-2-1.3c-.6-2.7-.9-15.7-1-19.8-.4-11.3,1.8-80.6-.3-84.3s-1.4-5.1-2.7-9.5-1.7-.6-1.9-1.4c-.5-1.7-.2-3.9-.9-5.9s-10.9-15.8-13.5-18-4.5-3.4-7.9-5.4-2.1-2.8-3.1-3.5c-50.4-36.1-137.4-33.1-194.9-16.1-2.5.7-11.4,3.2-12.8,4.2-2.4,1.8,2.2,7.3,4,8.5l-3-8c8.3-1.9,16.4-4.8,24.8-6.7,54.1-12.4,191.6-22.4,197.2,58.2,2.4,34.1-3.1,69.7,2.1,103.9.6,4.3,1.9,8.4,2.9,12.6ZM847,229c-.6.9-3,2.3-3.4,4.1l-38.6,62.9c.6-2.8-2.5-3.8-3-4.7-.8-1.7-.6-5-1.3-6s-5.4-6.4-5.6-6.9c-.4-.9,0-2.5-.3-3.1s-3.1-.6-3.7-1.3-.3-3.2-.9-4.6-5-8.3-6-10c-4.7-7.8-13.2-17.8-16.8-26.2s-.1-3.1-.6-3.8-3.2-.6-3.7-1.3,0-2.5-.7-3.8-4.7-5.3-5.5-6.7c-1.3-2.1-3.5-9.1-4.2-10.1s-2-.4-2.6-1.9,0-2.5-.3-3.1-3.2-.6-3.7-1.3.2-2.6-.7-3.8c-2.8-4.1-5.7-8.2-8.4-12.7s-9.4-15.8-15.8-19.2-2.4,0-3.8-1-2.4-5.7-4.9-7.1h-62.5c3.9,7.1,9,13.4,13.1,20.5s2.5,6.6,3.9,8.9c4.8,8.1,13,16.2,16.7,25.5s5.4,6.5,5.8,7.2c.8,1.3.2,3.1.7,3.8s2.8.5,3.6,1.4.7,2.9,1.2,4.1,4.5,6.8,5.7,8.5c5.9,9.1,13.4,17.9,19.1,26.5s-.1,2.5.4,3.5,4.3,3.1,4.5,3.5c5.2,10.9,13.2,22,20.7,31.7s-1,4.8,4.4,5.2c5.5,12.3,14.1,24,23.2,34.6.7.8,2.7,5.2,4.2,6s2.2,0,3,.3.4,1.4,2.2,2c8.5,2.9,24.5,0,34.1.8,3.5,2.5,11,7.4,12.9,11.1s2.2,6.7,3,7.9,1.9.7,2.3,1.2c.6.9-.1,2.5.4,3.5,1.2,2.2,8.4,6.3,10.4,8.6,16.6,18.9,35.8,37.2,51.7,55.4s13.2,10.5,18.4,16.6l1.6,3.4,9.3,8.6c.9,4.4,11.3,10.2,11.1,14.2s-5.3,3.8-4.7,6.5l11-10.5-125-129.5h63c.1,0,.1,1.5,1,2.5,21.8,25.3,46.1,48.8,68.6,73.5,8.6,9.4,16.8,19.3,24.9,29.1l4.4.8,9.1-12.8c-.9-1-7.3,8.2-8,8.6-2.6,1.5-3.5-3.3-4.3-4.3-4.5-5.3-9.5-9.8-13.6-14.6-15.7-18.3-38.8-37.1-51-57-1.3-2.1-7.6-6.6-9.7-9s-.8-2.8-1.5-3.5c-1-1-3.7-.7-4.6-1.4s-.7-3.1-1.4-3.6-4.6-.5-6.8-1.7-7-7.4-7.6-7.4h-37.5c-.9-2.7,1.6-1.5,2-2.7s.3-3.8,1.1-5.5,4.4-3.5,4.7-4c.5-1,0-2.4.5-3.5s4.3-3.2,4.8-4c8.4-14,18.1-26,25.9-39.6s11.9-14.5,16.1-21.3,3.1-5.2,6.4-9.3-.3-2.9.8-3.8,3.1-.5,3.9-1.8.4-3.9,1.2-5.1c1.1-1.8,6.2-6.2,7.7-8.9,5.2-9.2,11.5-16.8,17-25s8.4-13.4,12.3-20,4.3-3.2,4.5-3.5c.5-1.2,0-2.7.5-3.5,1.2-1.7,1.2-.1,2.9-4.5s1.8-.7,1.9-1.4c.3-1.2.3-7.5,0-8.6s-8.2-7.5-10-7.7l3-6h-60.5l-26.5,44c-5.9,9-12.9,18-17,28ZM990,261l10.7-7.8c34-20.8,74.9-24.2,113.8-28.2,17.6-.7,35.2-1.2,52.9-1.1,3.6-1.2.4-14-.6-17.1-11-32.9-70.7-31.5-98.2-28.8-18.5,1.9-37.2,6.5-54.9,12.1l-5.6-8.1c.4,2.9,2.5,6,4.1,8.4s1.6,2.8,3.1,5.4,5.4,5.5,5.7,5.7c1.6.9,3,.2,4.3.5s.6,1.8,1.3,2c1.2.3,7.5.3,8.7,0s.5-1.8,1.3-2c3.7-.8,10.2-.2,13.7-1s.5-1.8,1.3-2c2-.5,4.7.5,6.7,0s.5-1.8,1.3-2c6.5-1.5,18.3.7,22.6-2.7s42.8-1.4,44.5,0c4,3.2,11,1.5,16.6,2.7s5.4,3.4,6.4,3.9c2,1,6.4.7,7.1,1.2s.5,2.9,1.4,3.7,3.6.4,4.6,1.4.6,2.3,1.2,3.1,2,.6,2.6,2.6c.8,3,.4,6.1.4,9.1-37.2.7-75.4,1.7-112,9.5-22.4,4.8-49,12.6-65,29.5ZM1170,245c-23.7,0-47.9,0-71.4,3.1-17.6,2.4-53.6,9.6-61.8,27.2s-.1,26.7,12.3,34.1c21.7,12.9,64,10.4,86.9,1s4-1.1,4-2.5c-6.7,1.8-13,4.3-19.8,5.7-15.4,3.3-40.7,5.4-55.6.3s-9.6-6.9-10.3-8.2,0-2.1-.3-3-1.5-.7-1.7-1c-.5-.9-.6-9.7-.3-11.1s1.4-.7,1.6-1.1c2.1-3.8,3.2-3.6,5.4-6.3s.5-2.4,1.1-3.1c1.9-1.9,11.4-5.2,14.1-6.3s5-3.9,5.4-3.9c2.6-.6,4.8,1.5,6-2,16.2-1,28.3-5.5,44.8-6h23.1c2.3-2.3,5.4-2.7,8.8-2s1.7,3.7,5.6,2v19.5c0,2.6-4.8,8.3-6.5,10.5s-2.7,1.9-1,3c2.8-2.2,9.5-11.4,9.5-14.5v-35.5ZM748,347h-57v265h7c.2,1.5-.5,3.4.2,4.8s5.4,5.5,5.8,5.7c1.6.9,3,.2,4.3.5s.6,1.4.9,1.7c1.9,1.5,33.8-.5,39.1.3,1-2.8,2.8-1.5,4.6-2.5s4-5.4,6-6.2l1.1-7.7v-239.1c0-1.4-.9-7.5-1.3-8.2s-6-6-6.4-6.1c-1.3-.4-3,0-4.4-.1v-8ZM1039,388c4.3-4,9.2-8,13-12.5s2.4-1.6,2-3.5c-4.3,4-9.2,8-13,12.5s-2.4,1.6-2,3.5ZM1018,410c4.7-4.3,9.9-8.6,14-13.5s2.4-1.6,2-3.5c-4.7,4.3-9.9,8.6-14,13.5s-2.4,1.6-2,3.5ZM850,572l61-60.5,2-3.5-61,60.5-2,3.5Z"/>
  <path class="st0" d="M847,229c5.9-9,12.9-18,17-28,.2-.3,1.2-.7,1.8-1.6,9-13.4,16.1-28.4,25.7-41.4h57.5l-122.4,178.1-3,1-52.4-.2-119.2-178.8h59.5l2.3,2.7c28.4,48.7,60.7,95.2,86.7,145.3,1.5.3,2.6-1.6,3.3-2.7,3.4-4.9,6.7-13.4,10-19,10.4-17.8,22.1-34.8,32.4-52.6l.8-2.7Z"/>
  <path d="M595,157v5.9c2.6-.7,3,1.9,3.8,2.1,6,1.6,2.1,1.5,4.5,3.8s3.1.5,3.9,1.8c1.2,2.1.4,4.9,3,6.8v161.1c-2.7,1.8-1.5,5-2.6,6.5s-1.2-.8-2.5,4.2-3.1.6-2,6.1l2,1.1-2,.5v2s2,.6,2,.6c-.6,4,0,4.5,2,6.8v163.1c-3.6,2.8-1.3,5.2-2.1,8.8s-1.8.5-2,1.3c-.5,2.4.3,5.1-.8,8s-1.9,1.3-2.1,2.1c-2.2,7.2-3.2,12.9-7,19.6s-4.5,4.7-6.8,6.9-3,6.4-4.2,8c-2.6,3.5-7.7,4.9-9.8,6.9s-.6,2.9-1.4,3.6-6.1,2.5-7.5,3.5c-3.7,2.7-3.9,2.8-6.2,6.1s-6.9,2.9-8.4,3.7c-4,2-9,5.3-13.5,6.9s-9.1,1.8-14.6,3.1-5.9,3.9-6.3,4c-3.6.9-9.4.3-12.7,1s-.5,1.8-1.3,2c-2.5.6-6.2-.6-8.7,0s-.5,1.8-1.3,2c-2.5.6-6.9-.2-9.9,0-25.4,1.9-52.6,1.9-78,0s-7.4.6-9.9,0-.5-1.8-1.3-2c-2.2-.5-5.5.5-7.7,0s-.5-1.8-1.3-2c-3.1-.7-8.1,0-11.7-1s-.6-1.8-1.4-2c-4.3-.9-11.3-1.7-15.6-3.1s-4-3.7-4.5-3.9c-8.2-3.3-13.9-5.4-21.9-10.4s-4.9-2.7-5.2-2.9c-.8-.6-.6-2.8-1.4-3.6s-3.7-.7-4.6-1.4-.6-2.8-1.4-3.6-2.8-.6-3.6-1.4c-3.1-3.1-7.6-10-9.8-13.8s-3.8-2.7-4.4-3.8c-10.4-21.8-19.5-34.8-21.1-60.7-3-49.1,3.6-102.3,0-151.1s-.4-3.6-1.2-5.3h-41.4c-2.5-4.4-12.8-.6-15.2-2.4-4.1-3.3-12.7-1.4-18.6-2.7s-.5-1.8-1.3-2c-1.8-.4-4,.4-5.7,0s-.5-1.8-1.3-2c-3.3-.7-9.1-.1-12.7-1s-.5-1.8-1.3-2c-9.5-2-17.2-5.2-26.6-8.1s-6.8-5.7-7.5-5.9c-10.5-3.2-15-6.7-23.6-12.7s-2.6-3.1-3.9-4.1-3.5-.4-4.6-1.4-.7-3.2-1.4-3.6-2.5,0-3.8-.7c-2.2-1.3-5.8-7.5-7.3-9.2s-8.6-7.1-9.8-9,0-2.6-.5-3.3c-20.1-26.1-31.3-51.9-26.2-86.2s9.7-34.6,20.7-46.8l-10.2,17.3c-42.3,104.9,57.4,159.8,146.7,169.7s237.1-11.6,244.6-118.5c8.7-125.8-159.9-146.8-251.4-133.4-38,5.6-71.2,17.5-102.6,39.4s-1.9,2.7-3,1c4.6-4.2,10.3-8.1,15.7-11.3,70.6-42.7,192.3-44.8,266.7-11,10.9,4.9,20.9,13.3,30.4,17.8s4.2.6,5,1.3.7,3.3,1.4,3.7,2.7-.3,3.6.3c3.3,2.3,10.5,10.6,13.2,12.2s3.1.2,3.8.7,6.4,9,7.5,10.6c2,2.8,1.9,3.6,2.9,5.1s2.8.5,3.6,1.4c2.7,2.7,3.5,9.2,4.5,10.5,1.9,2.7,6.6,8.9,7.7,12,1.9,5.6,1.8,8.9,3.1,14.6s1.8.5,2,1.3c2,8.6,1.9,40,0,48.7s-1.8.5-2,1.3c-.6,2.6-.3,6.9-1.1,9.6s-1.8.6-2,1.4c-2.5,11.6-11.9,26.2-20,35.6s-16,14.2-24.6,21.1-2.2,3-2.7,3.3c-1.7.9-4.7.9-5.5,1.6s-.6,2.9-1.4,3.6-4.5.7-6,1.3-4.1,3.6-4.5,3.9c-7.1,3.2-14,5.9-21.5,8.1s-.6,1.8-1.4,2c-11.2,2.3-20.1,8.2-32.6,8-5.3,6.2-10.2,2-9.4,12.5s.2,6.5,2.4,6.8c2,49.5-2.1,99.9,1.3,149.3.2,3.2-.6,8.2,0,10.9s1.8.5,2,1.3c.7,3.1,0,8.1,1,11.6s1.7.6,1.9,1.4c.6,2.1.3,5.3,1.1,7.5s3.4,3.8,3.9,4.5c3.2,5.2,7.2,14.8,13,18.6s2.9-.2,3.8.8.5,3.1,1.9,3.9c22.5,13.2,67.5,13.4,92.5,8.6,16.6-3.2,30.5-8.9,43.8-19.2s1.9-2.7,3-1c-13.1,12.5-32.9,19.4-50.6,22.4-59.3,9.7-129.8-7.1-132.4-78.4v-159.5s-55,0-55,0v155.5c1.5,100.3,102.6,115.5,182.5,109.5,64-4.8,129.7-30.1,134.5-103.5v-161.5h-55v166.5c0,4.6-3.5,17-5.2,21.8s-3.5,8.2-5.6,11.4-1.4,3.2-2.2,1.8c2.2-5.7,5.6-10.7,7.5-16.5,2.8-8.7,3.1-17.6,4.5-26.5v-159.5s10,0,10,0c1.1-2.6-1.8-1.6-2-2.6v-5.3c0,0-10-1.1-10-1.1v-181h59ZM594,158h-56v179h56v-179Z"/>
  <path d="M1229,337c-.9-4.2-2.2-8.4-2.9-12.6-5.2-34.2.3-69.8-2.1-103.9-5.6-80.6-143.2-70.5-197.2-58.2-8.4,1.9-16.5,4.8-24.8,6.7l3,8c-1.8-1.2-6.4-6.7-4-8.5s10.3-3.5,12.8-4.2c57.5-17,144.5-20,194.9,16.1s2,2.9,3.1,3.5c3.4,2,5,2.9,7.9,5.4s12.6,15.5,13.5,18,.4,4.3.9,5.9,1.7.6,1.9,1.4c1.3,4.4.2,5.1,2.7,9.5s-.1,73,.3,84.3.4,17.1,1,19.8,1.8.5,2,1.3c.3,1.4.2,9.2-.3,10.1s-1.5,0-1.7.9c-1.4,6.1-.9,2.9-3.1,6s-.5,2.8-1.1,3.2-7.1,1.1-8.3,1.2c-8.4.5-24.8.9-32.8-.3s-5.1-3-7.5-4.7c-4-2.8-1.8-1.4-4.2-4.3s-3.8-3.7-4.5-3.8c-1.7-.2-7.5-.3-8.9,0s-.5,1.7-1.4,2c-1.9.5-4.5,0-6.6,1.1s-5.1,3.8-5.5,3.9c-2.9.9-7.4.1-9.3,3.7-2.7,5.2,2.2,14.7-1.3,21-4,3.9-8.6,7.5-12.4,11.6s-1.8,4.2-3.6,5.3-3.6.8-4.5,1.6c-2.7,2.7-7.8,10.8-10.4,13.6s-2.9.2-3.8.8c-4,2.6-9,12.3-12.7,14.4s-6.7,4.6-10.3,8.7-4,6.6-6.3,7.9c-6.9,4-10.3,9.5-16.3,15.3s-5.8,3.8-8.1,6.4-3.1,2.9-5.1,4.9-.6,2.8-1.4,3.6-3.7.7-4.6,1.4-.6,2.3-1.2,3.1c-2,2.4-8.8,7.3-10.1,9.4s-.5,2.6-1,3.6-1.8.7-1.9,1.4c-.3,1.2-.3,4.4,0,5.7s1.6.6,1.9,1.4c.9,1.7.5,4.7,1.3,6,4.6,7.1,18.4,13.4,22,22,5.6,4.7,7.3,8.1,13.4,11.7s4.7,4.6,5.4,5.4c10.6,11.4,21.8,22.7,31.9,34.5s6.8,3.6,10.1,7.5,9.9,10,14,15,.5,2.4,1.1,3.1c1,1,3.7.7,4.6,1.4s.6,2.8,1.4,3.6,2.8.6,3.6,1.4c2.6,2.6,3.1,7.1,4.3,10.1s1.8.7,1.9,1.4c.3,1.3.3,5.3,0,6.7s-2.8,3-3,3.1c-1.6.9-3,.2-4.3.5s-.6,1.4-.9,1.7c-1.8,1.5-41.6.9-46.3.4s-1.2-1.8-2.1-2c-1.7-.5-5.8-.2-7.1-1.3s-.7-3.2-1.4-3.6-2.5,0-3.8-.7c-2.1-1.2-5.9-7.6-7.3-9.2-4.5-4.9-11.2-8.8-15.4-13.6s-4.6-6-6.6-8.4c-6.7-7.7-14.7-13.9-21.4-21.6s-21.2-21-31.4-32.4-.4-2.3-1.2-3-4.2-2.1-5.5-2.9-1.1-1.9-2-2.2c-2-.8-8.4-1.1-10.1.1s-.5,2.8-1.4,3.6-4.2.8-4.7,1.4.1,2.6-.6,3.9-1.9.8-2.6,1.7c-4,5.6-9.3,9.5-14,15-15.7,18.3-34.2,38.4-51.3,57s-5.9,4.8-7.7,7-.5,2.4-1.1,3.1-3.1.8-4.5,1.6-2.2,3.2-3.1,3.6c-1.8.8-4,.5-5.5,1.1s-.3,1.8-2.2,2c-6.1.7-40.2,1-44.9,0s-.6-1.5-.9-1.7c-1-.7-2.8,0-4.1-.4s-3.3-2.9-3.4-3.1c-.9-1.9,0-5.5-.3-7.8h-16c-.4-1.7.7-2,1.5-3,3.8-4.5,9.1-8.5,13-13,1.6,1-.3,2.2-1,3-3.2,3.8-7.7,6.8-10.5,11h61.5c15.9-17.4,31.1-35.5,47-53,8-8.9,17-17.1,25-26,8.6-9.5,16.3-19.7,24.6-29.4,2.9-3.4,4.5-.8,6.9,1.8,33.3,36,68,70.6,101.5,106.5h62.5l-133-134.5,130-127.5h-62.5l-18.5,19c-.4-1.9,1-2.4,2-3.5,2.5-2.9,5.9-5.2,8-8.5-2.8-.4-6.8.6-9.3,0s-.5-1.8-1.3-2c-2.7-.6-7,.6-9.7,0s-.5-1.8-1.3-2c-3.3-.7-9.1-.1-12.7-1s-.5-1.8-1.3-2c-1.5-.3-3.2.3-4.7,0s-.5-1.7-1.3-2c-1.9-.5-4.3,0-6.5-1.1s-4.2-3.8-4.5-3.9c-5.3-1.6-11.4-4-15.3-8.8s-.5-2.5-1.2-3.1-4.2-.6-4.7-1.4.3-2.5-.3-3.6-3.7-2.7-4.4-3.6c-2.3-3.2-6.6-9.5-8.5-13-7.5-13.2-6.6-28.7,2.7-40.7,1.1,2.3-2.1,4.8-3,7-9.3,22.5,2,40.4,21.5,51.5,40,22.8,112.2,19.1,152.7-1.3,4.8-2.4,10.5-7.5,14.6-9.4s2.3-1,3.7-.8l4,23h51Z"/>
  <path d="M847,229c4.1-10,11.1-19,17-28-4.1,10-11.1,19-17,28Z"/>
  <path d="M864,201l26.5-44h60.5l-3,6c1.8.2,9.8,7,10,7.7.3,1.1.3,7.5,0,8.6s-1.6.4-1.9,1.4c-1.7,4.4-1.7,2.7-2.9,4.5s0,2.4-.5,3.5-4.2,3-4.5,3.5c-3.8,6.6-7.9,13.4-12.3,20s-11.7,15.8-17,25-6.6,7.1-7.7,8.9-.3,3.6-1.2,5.1-3,1-3.9,1.8-.2,3.1-.8,3.8c-3.3,4.1-3.7,4.8-6.4,9.3-4.2,6.8-12.1,14.4-16.1,21.3-7.8,13.7-17.5,25.6-25.9,39.6s-4.6,3.6-4.8,4c-.5,1.1,0,2.5-.5,3.5s-4.3,3-4.7,4c-.8,1.8-.5,4-1.1,5.5s-2.9,0-2,2.7h37.5c.6,0,5.9,6.5,7.6,7.4s6,1.2,6.8,1.7.5,2.9,1.4,3.6,3.6.4,4.6,1.4.6,2.4,1.5,3.5c2.1,2.3,8.4,6.9,9.7,9,12.3,19.9,35.4,38.7,51,57s9.1,9.3,13.6,14.6,1.8,5.8,4.3,4.3,7-9.6,8-8.6l-9.1,12.8-4.4-.8c-8.1-9.8-16.3-19.7-24.9-29.1-22.5-24.7-46.8-48.2-68.6-73.5s-.8-2.5-1-2.5h-63l125,129.5-11,10.5c-.6-2.7,4.7-5,4.7-6.5.2-4-10.2-9.8-11.1-14.2l-9.3-8.6-1.6-3.4c-5.1-6.1-13.5-11-18.4-16.6-15.8-18.1-35-36.5-51.7-55.4-2-2.3-9.2-6.4-10.4-8.6s.1-2.7-.4-3.5-1.8-.5-2.3-1.2c-.8-1.3-2.2-6.3-3-7.9-1.9-3.7-9.4-8.6-12.9-11.1-9.6-.9-25.6,2-34.1-.8s-1.3-1.7-2.2-2-2.1.2-3-.3c-1.5-.8-3.5-5.2-4.2-6-9.1-10.5-17.7-22.3-23.2-34.6-5.4-.4-3.4-3.9-4.4-5.2-7.6-9.7-15.6-20.8-20.7-31.7s-4.3-3.2-4.5-3.5c-.6-1.1.1-2.7-.4-3.5-5.7-8.6-13.2-17.4-19.1-26.5-1.1-1.7-5-7.2-5.7-8.5s-.4-3.2-1.2-4.1-3.2-.7-3.6-1.4,0-2.5-.7-3.8-5.3-6-5.8-7.2c-3.7-9.2-11.9-17.3-16.7-25.5s-2.6-6.6-3.9-8.9c-4-7-9.2-13.4-13.1-20.5h62.5c2.5,1.4,3.1,5.8,4.9,7.1s2.9.5,3.8,1c6.4,3.4,12.3,13.2,15.8,19.2s5.6,8.6,8.4,12.7.2,3.1.7,3.8,3.2.6,3.7,1.3,0,2.2.3,3.1c.6,1.5,2.2,1.4,2.6,1.9.7,1,3,8,4.2,10.1s5,5.9,5.5,6.7c.8,1.3.2,3.1.7,3.8s3.2.6,3.7,1.3.1,2.7.6,3.8c3.6,8.4,12.1,18.5,16.8,26.2s5.7,9.1,6,10c.6,1.4.4,3.9.9,4.6s3.2.6,3.7,1.3,0,2.2.3,3.1,5,6.1,5.6,6.9.5,4.3,1.3,6,3.6,1.9,3,4.7l38.6-62.9c.4-1.8,2.8-3.2,3.4-4.1l-.8,2.7c-10.3,17.8-22,34.9-32.4,52.6s-6.6,14.2-10,19-1.9,3-3.3,2.7c-26-50.1-58.3-96.6-86.7-145.3l-2.3-2.7h-59.5l119.2,178.8,52.4.2,3-1,122.4-178.1h-57.5c-9.6,13-16.7,27.9-25.7,41.4s-1.7,1.4-1.8,1.6Z"/>
  <path d="M748,347v8c1.4,0,3-.3,4.4.1s6.2,5.7,6.4,6.1c.4.7,1.2,6.8,1.3,8.2v239.1s-1.1,7.7-1.1,7.7c-2,.8-4.8,5.5-6,6.2-1.8,1-3.7-.2-4.6,2.5-5.3-.8-37.2,1.2-39.1-.3s0-1.5-.9-1.7c-1.4-.3-2.8.3-4.3-.5s-5.6-5.3-5.8-5.7c-.8-1.4,0-3.3-.2-4.8h-7s0-265,0-265h57ZM746,348h-54v262h54v-262Z"/>
  <path d="M990,261c16-16.9,42.6-24.7,65-29.5,36.6-7.8,74.8-8.8,112-9.5,0-3,.4-6.1-.4-9.1s-1.9-1.6-2.6-2.6-.5-2.4-1.2-3.1c-1-1-3.7-.7-4.6-1.4s-.7-3.2-1.4-3.7-5.1-.2-7.1-1.2-6-3.9-6.4-3.9c-5.6-1.2-12.6.5-16.6-2.7s-42.8-1.4-44.5,0c-4.3,3.4-16.1,1.3-22.6,2.7s-.5,1.8-1.3,2c-2,.5-4.7-.5-6.7,0s-.5,1.8-1.3,2c-3.5.8-10,.2-13.7,1s-.5,1.8-1.3,2c-1.2.3-7.5.3-8.7,0s-.5-1.8-1.3-2c-1.4-.3-2.8.3-4.3-.5s-5.5-5.4-5.7-5.7c-1.4-2.6-.9-2.2-3.1-5.4s-3.7-5.5-4.1-8.4l5.6,8.1c17.7-5.6,36.3-10.2,54.9-12.1,27.5-2.8,87.3-4.1,98.2,28.8s4.2,15.9.6,17.1c-17.7-.1-35.3.4-52.9,1.1-38.9,4-79.8,7.3-113.8,28.2l-10.7,7.8Z"/>
  <path d="M599.6,97.4c3.1,2.2,4.7,2.6,7.4,4.1s3.2,4.9,4.1,6.7,1.5.6,1.9,1.5c1.4,3.6,1.5,11.9,0,15.5s-1.3.6-1.8,1.5,0,2-.6,3.2-4,2.6-5.1,3.4-8.5,6.5-9,6.6c-8.6,1.9-32,1.8-40.6,0s-3.7-3.6-4.4-3.9c-1.3-.7-3.2-.6-4.9-1.4s-4.8-4.6-5-4.9c-1-1.7-.6-6-1.5-7.5s-6.4-4.5-8.2-7.3c-3.7-5.6-3.5-14,2.5-18,.1,2.4-2.3,3.4-2.8,5.7-.9,3.9-.6,8.6,1.8,11.8,10.3,13.9,39.4,13.9,54,8s11.6-5.6,12.8-11.2c5.2-25.2-36.7-27.4-52.6-21.6l-12.2,5.8c12.1-11.8,39.1-12.3,53.7-5.7s7.1,5,10.9,7.6Z"/>
  <polygon points="850 572 852 568.5 913 508 911 511.5 850 572"/>
  <path d="M1018,410c-.4-1.9,1-2.4,2-3.5,4.1-4.9,9.3-9.2,14-13.5.4,1.9-1,2.4-2,3.5-4.1,4.9-9.3,9.2-14,13.5Z"/>
  <path d="M1039,388c-.4-1.9,1-2.4,2-3.5,3.8-4.5,8.6-8.5,13-12.5.4,1.9-1,2.4-2,3.5-3.8,4.5-8.6,8.5-13,12.5Z"/>
  <path d="M102,132l-15,15c-.4-1.9,1-2.4,2-3.5,2.4-2.8,6.7-7.1,9.5-9.5s1.6-2.4,3.5-2Z"/>
  <path d="M370,283c17.8-16.8,31.7-37.4,33.9-62.6s-1.4-36.3-9.9-47.6c-6.3-8.4-16.1-16.7-24.3-22.4s-2.6-3.1-3.9-4.1-3.6-.6-5-1.3-4.2-3.8-4.5-3.9c-7.4-2.3-13-3.9-20.6-6.1s-5.9-3.9-6.3-4c-3.5-.8-10-.2-13.7-1s-.5-1.8-1.3-2c-2.7-.6-7,.6-9.7,0s-.5-1.8-1.3-2c-5.6-1.3-10.7,2.1-15.6-1.7s-24-.8-26.1-.3-.5,1.8-1.3,2c-3.9.9-10.8-.9-14.7,0s-.5,1.8-1.3,2c-2.7.6-7-.6-9.7,0s-.5,1.8-1.3,2c-3.5.8-10,.2-13.7,1s-.5,1.8-1.3,2c-5.2,1.1-13.2,2.8-18.1,5.3-7.4,3.7-14.6,7.4-21.9,12.1s-5,2.6-5.2,2.8c-.8.8-.6,2.9-1.4,3.6s-2.8.5-4.1,1.2c-3.6,2-12.1,14.7-15,18.6s-4,3.1-4.4,3.7c-.8,1.4-.5,4.2-1.4,6s-1.5.6-1.9,1.5c-2,5.3-2.6,10.3-4.1,15.5s-1.8.6-2,1.4c-1,4.2,1.6,4.4-1.7,8.6s-1.4,22.7,1.7,23.4c1.1,9.1,4.4,19.5,9,27.6s14,17.7,19.3,22.4c39.5,35,125.8,34.2,173.3,13.5l21.3-11.2c-11.5,9.6-27.4,15.7-41.8,19.7-69.6,19.5-191.8.6-198.2-89.2-6.3-87.3,93.5-117.1,163.5-110.5,60.5,5.7,129.1,44.1,119.4,114.4-2.9,21.3-14.9,43.7-31.4,57.6-1.1,1-1.6,2.4-3.5,2Z"/>
  <path d="M1170,245v35.5c0,3.1-6.7,12.3-9.5,14.5-1.7-1.1.4-2.2,1-3,1.7-2.2,6.5-7.9,6.5-10.5v-19.5c-3.9,1.7-5.3-1.9-5.6-2-3.3-.8-6.5-.3-8.8,2.1h-23.1c-16.5.5-28.6,4.9-44.8,5.9-1.2,3.5-3.3,1.4-6,2s-4.7,3.7-5.4,3.9c-2.7,1.1-12.1,4.4-14.1,6.3s-.6,2.3-1.1,3.1c-2.2,2.7-3.4,2.5-5.4,6.3s-1.4.4-1.6,1.1c-.3,1.4-.2,10.2.3,11.1s1.4,0,1.7,1-.2,2.1.3,3,8.6,7.6,10.3,8.2c15,5.1,40.2,3,55.6-.3,6.8-1.4,13.1-3.9,19.8-5.7,0,1.4-2.8,2-4,2.5-22.9,9.3-65.2,11.8-86.9-1s-18.7-20.2-12.3-34.1,44.2-24.8,61.8-27.2c23.5-3.2,47.7-3.2,71.4-3.1Z"/>
  <rect class="st0" x="538" y="158" width="56" height="179"/>
  <rect class="st0" x="692" y="348" width="54" height="262"/>
</svg>